<mxfile host="app.diagrams.net" modified="2023-09-20T15:10:36.125Z" agent="Mozilla/5.0 (Windows NT 10.0; Win64; x64) AppleWebKit/537.36 (KHTML, like Gecko) Chrome/116.0.0.0 Safari/537.36" etag="qGcsb3LFg3fL2-rhFTQj" version="21.7.4" type="device">
  <diagram id="DxNKvoeq2AChO74HLZPM" name="Trang-1">
    <mxGraphModel dx="2232" dy="5724" grid="1" gridSize="10" guides="1" tooltips="1" connect="1" arrows="1" fold="1" page="1" pageScale="1" pageWidth="3300" pageHeight="4681" math="0" shadow="0">
      <root>
        <mxCell id="0" />
        <mxCell id="1" parent="0" />
        <mxCell id="uV0zn38WkX8JTxeuLIEu-31" value="Nhân viên bán hàng" style="shape=umlActor;verticalLabelPosition=bottom;verticalAlign=top;html=1;outlineConnect=0;points=[[0,0.3333333333333333,0,0,0],[0,1,0,0,0],[0.25,0.1,0,0,0],[0.5,0,0,0,0],[0.5,0.5,0,0,0],[0.75,0.1,0,0,0],[1,0.5,0,3,0],[1,1,0,0,0]];" parent="1" vertex="1">
          <mxGeometry x="180" y="1460" width="30" height="60" as="geometry" />
        </mxCell>
        <mxCell id="z7pWqWYc3UyObxsn9o9w-1" value="" style="endArrow=none;html=1;rounded=0;exitX=1;exitY=0.5;exitDx=3;exitDy=0;exitPerimeter=0;entryX=0;entryY=0.5;entryDx=0;entryDy=0;" parent="1" source="uV0zn38WkX8JTxeuLIEu-31" target="g8SVWHZAsRiCq_bppXQF-77" edge="1">
          <mxGeometry width="50" height="50" relative="1" as="geometry">
            <mxPoint x="500" y="1440" as="sourcePoint" />
            <mxPoint x="380" y="1350" as="targetPoint" />
          </mxGeometry>
        </mxCell>
        <mxCell id="z7pWqWYc3UyObxsn9o9w-2" value="" style="endArrow=none;html=1;rounded=0;exitX=1;exitY=0.5;exitDx=3;exitDy=0;exitPerimeter=0;entryX=0.017;entryY=0.54;entryDx=0;entryDy=0;entryPerimeter=0;" parent="1" source="uV0zn38WkX8JTxeuLIEu-31" target="g8SVWHZAsRiCq_bppXQF-79" edge="1">
          <mxGeometry width="50" height="50" relative="1" as="geometry">
            <mxPoint x="500" y="1440" as="sourcePoint" />
            <mxPoint x="379.9999999999966" y="1720" as="targetPoint" />
          </mxGeometry>
        </mxCell>
        <mxCell id="z7pWqWYc3UyObxsn9o9w-8" value="Xuất hóa đơn" style="ellipse;whiteSpace=wrap;html=1;" parent="1" vertex="1">
          <mxGeometry x="420" y="1200" width="120" height="80" as="geometry" />
        </mxCell>
        <mxCell id="z7pWqWYc3UyObxsn9o9w-9" value="Tính hóa đơn" style="ellipse;whiteSpace=wrap;html=1;" parent="1" vertex="1">
          <mxGeometry x="520" y="1310" width="120" height="80" as="geometry" />
        </mxCell>
        <mxCell id="z7pWqWYc3UyObxsn9o9w-13" value="" style="endArrow=none;html=1;rounded=0;entryX=1;entryY=0.5;entryDx=3;entryDy=0;entryPerimeter=0;exitX=0;exitY=0.5;exitDx=0;exitDy=0;" parent="1" source="g8SVWHZAsRiCq_bppXQF-78" target="uV0zn38WkX8JTxeuLIEu-31" edge="1">
          <mxGeometry width="50" height="50" relative="1" as="geometry">
            <mxPoint x="380" y="1520" as="sourcePoint" />
            <mxPoint x="260" y="1560" as="targetPoint" />
          </mxGeometry>
        </mxCell>
        <mxCell id="z7pWqWYc3UyObxsn9o9w-18" value="Thêm sản phẩm" style="ellipse;whiteSpace=wrap;html=1;" parent="1" vertex="1">
          <mxGeometry x="720" y="1270" width="120" height="80" as="geometry" />
        </mxCell>
        <mxCell id="z7pWqWYc3UyObxsn9o9w-19" value="Xóa sản phẩm&amp;nbsp;" style="ellipse;whiteSpace=wrap;html=1;" parent="1" vertex="1">
          <mxGeometry x="610" y="1210" width="120" height="80" as="geometry" />
        </mxCell>
        <mxCell id="z7pWqWYc3UyObxsn9o9w-20" value="Chỉnh&amp;nbsp; sửa số lượng sản phẩm" style="ellipse;whiteSpace=wrap;html=1;" parent="1" vertex="1">
          <mxGeometry x="720" y="1350" width="120" height="80" as="geometry" />
        </mxCell>
        <mxCell id="z7pWqWYc3UyObxsn9o9w-24" value="Ap dụng chương trình giảm giá" style="ellipse;whiteSpace=wrap;html=1;" parent="1" vertex="1">
          <mxGeometry x="610" y="1400" width="120" height="80" as="geometry" />
        </mxCell>
        <mxCell id="g8SVWHZAsRiCq_bppXQF-5" value="" style="endArrow=open;endSize=12;dashed=1;html=1;rounded=0;exitX=1;exitY=0.5;exitDx=0;exitDy=0;entryX=0;entryY=0.5;entryDx=0;entryDy=0;" edge="1" parent="1" source="g8SVWHZAsRiCq_bppXQF-77" target="z7pWqWYc3UyObxsn9o9w-9">
          <mxGeometry width="160" relative="1" as="geometry">
            <mxPoint x="460" y="1350" as="sourcePoint" />
            <mxPoint x="700" y="1520" as="targetPoint" />
          </mxGeometry>
        </mxCell>
        <mxCell id="g8SVWHZAsRiCq_bppXQF-6" value="include" style="edgeLabel;html=1;align=center;verticalAlign=middle;resizable=0;points=[];" vertex="1" connectable="0" parent="g8SVWHZAsRiCq_bppXQF-5">
          <mxGeometry x="0.2375" y="1" relative="1" as="geometry">
            <mxPoint as="offset" />
          </mxGeometry>
        </mxCell>
        <mxCell id="g8SVWHZAsRiCq_bppXQF-7" value="" style="endArrow=open;endSize=12;dashed=1;html=1;rounded=0;exitX=1;exitY=0.5;exitDx=0;exitDy=0;entryX=0.5;entryY=1;entryDx=0;entryDy=0;" edge="1" parent="1" source="g8SVWHZAsRiCq_bppXQF-77" target="z7pWqWYc3UyObxsn9o9w-8">
          <mxGeometry width="160" relative="1" as="geometry">
            <mxPoint x="460" y="1350" as="sourcePoint" />
            <mxPoint x="690" y="1790" as="targetPoint" />
          </mxGeometry>
        </mxCell>
        <mxCell id="g8SVWHZAsRiCq_bppXQF-8" value="include" style="edgeLabel;html=1;align=center;verticalAlign=middle;resizable=0;points=[];" vertex="1" connectable="0" parent="g8SVWHZAsRiCq_bppXQF-7">
          <mxGeometry x="0.2375" y="1" relative="1" as="geometry">
            <mxPoint as="offset" />
          </mxGeometry>
        </mxCell>
        <mxCell id="g8SVWHZAsRiCq_bppXQF-9" value="" style="endArrow=open;endSize=12;dashed=1;html=1;rounded=0;exitX=1;exitY=0.5;exitDx=0;exitDy=0;entryX=0.5;entryY=1;entryDx=0;entryDy=0;" edge="1" parent="1" source="z7pWqWYc3UyObxsn9o9w-9" target="z7pWqWYc3UyObxsn9o9w-19">
          <mxGeometry width="160" relative="1" as="geometry">
            <mxPoint x="530" y="1790" as="sourcePoint" />
            <mxPoint x="690" y="1790" as="targetPoint" />
          </mxGeometry>
        </mxCell>
        <mxCell id="g8SVWHZAsRiCq_bppXQF-10" value="include" style="edgeLabel;html=1;align=center;verticalAlign=middle;resizable=0;points=[];" vertex="1" connectable="0" parent="g8SVWHZAsRiCq_bppXQF-9">
          <mxGeometry x="0.2375" y="1" relative="1" as="geometry">
            <mxPoint as="offset" />
          </mxGeometry>
        </mxCell>
        <mxCell id="g8SVWHZAsRiCq_bppXQF-11" value="" style="endArrow=open;endSize=12;dashed=1;html=1;rounded=0;exitX=1;exitY=0.5;exitDx=0;exitDy=0;entryX=0;entryY=0.5;entryDx=0;entryDy=0;" edge="1" parent="1" source="z7pWqWYc3UyObxsn9o9w-9" target="z7pWqWYc3UyObxsn9o9w-18">
          <mxGeometry width="160" relative="1" as="geometry">
            <mxPoint x="530" y="1790" as="sourcePoint" />
            <mxPoint x="690" y="1790" as="targetPoint" />
          </mxGeometry>
        </mxCell>
        <mxCell id="g8SVWHZAsRiCq_bppXQF-12" value="include" style="edgeLabel;html=1;align=center;verticalAlign=middle;resizable=0;points=[];" vertex="1" connectable="0" parent="g8SVWHZAsRiCq_bppXQF-11">
          <mxGeometry x="0.2375" y="1" relative="1" as="geometry">
            <mxPoint as="offset" />
          </mxGeometry>
        </mxCell>
        <mxCell id="g8SVWHZAsRiCq_bppXQF-13" value="" style="endArrow=open;endSize=12;dashed=1;html=1;rounded=0;exitX=1;exitY=0.5;exitDx=0;exitDy=0;entryX=0;entryY=0.375;entryDx=0;entryDy=0;entryPerimeter=0;" edge="1" parent="1" source="z7pWqWYc3UyObxsn9o9w-9" target="z7pWqWYc3UyObxsn9o9w-20">
          <mxGeometry width="160" relative="1" as="geometry">
            <mxPoint x="530" y="1790" as="sourcePoint" />
            <mxPoint x="690" y="1790" as="targetPoint" />
          </mxGeometry>
        </mxCell>
        <mxCell id="g8SVWHZAsRiCq_bppXQF-14" value="include" style="edgeLabel;html=1;align=center;verticalAlign=middle;resizable=0;points=[];" vertex="1" connectable="0" parent="g8SVWHZAsRiCq_bppXQF-13">
          <mxGeometry x="0.2375" y="1" relative="1" as="geometry">
            <mxPoint as="offset" />
          </mxGeometry>
        </mxCell>
        <mxCell id="g8SVWHZAsRiCq_bppXQF-15" value="" style="endArrow=open;endSize=12;dashed=1;html=1;rounded=0;exitX=1;exitY=0.5;exitDx=0;exitDy=0;entryX=0.5;entryY=0;entryDx=0;entryDy=0;" edge="1" parent="1" source="z7pWqWYc3UyObxsn9o9w-9" target="z7pWqWYc3UyObxsn9o9w-24">
          <mxGeometry width="160" relative="1" as="geometry">
            <mxPoint x="530" y="1790" as="sourcePoint" />
            <mxPoint x="690" y="1790" as="targetPoint" />
          </mxGeometry>
        </mxCell>
        <mxCell id="g8SVWHZAsRiCq_bppXQF-16" value="include" style="edgeLabel;html=1;align=center;verticalAlign=middle;resizable=0;points=[];" vertex="1" connectable="0" parent="g8SVWHZAsRiCq_bppXQF-15">
          <mxGeometry x="0.2375" y="1" relative="1" as="geometry">
            <mxPoint as="offset" />
          </mxGeometry>
        </mxCell>
        <mxCell id="g8SVWHZAsRiCq_bppXQF-20" value="" style="endArrow=open;endSize=12;dashed=1;html=1;rounded=0;exitX=0;exitY=0.5;exitDx=0;exitDy=0;entryX=1;entryY=0.5;entryDx=0;entryDy=0;" edge="1" parent="1" source="g8SVWHZAsRiCq_bppXQF-80" target="g8SVWHZAsRiCq_bppXQF-79">
          <mxGeometry width="160" relative="1" as="geometry">
            <mxPoint x="580" y="1930" as="sourcePoint" />
            <mxPoint x="460.00000000000387" y="1930" as="targetPoint" />
          </mxGeometry>
        </mxCell>
        <mxCell id="g8SVWHZAsRiCq_bppXQF-21" value="extend" style="edgeLabel;html=1;align=center;verticalAlign=middle;resizable=0;points=[];" vertex="1" connectable="0" parent="g8SVWHZAsRiCq_bppXQF-20">
          <mxGeometry x="0.2375" y="1" relative="1" as="geometry">
            <mxPoint as="offset" />
          </mxGeometry>
        </mxCell>
        <mxCell id="g8SVWHZAsRiCq_bppXQF-25" value="" style="endArrow=open;endSize=12;dashed=1;html=1;rounded=0;exitX=1;exitY=0.5;exitDx=0;exitDy=0;entryX=0;entryY=0.5;entryDx=0;entryDy=0;" edge="1" parent="1" source="g8SVWHZAsRiCq_bppXQF-80" target="g8SVWHZAsRiCq_bppXQF-81">
          <mxGeometry width="160" relative="1" as="geometry">
            <mxPoint x="660" y="1930" as="sourcePoint" />
            <mxPoint x="750" y="1930" as="targetPoint" />
          </mxGeometry>
        </mxCell>
        <mxCell id="g8SVWHZAsRiCq_bppXQF-26" value="include" style="edgeLabel;html=1;align=center;verticalAlign=middle;resizable=0;points=[];" vertex="1" connectable="0" parent="g8SVWHZAsRiCq_bppXQF-25">
          <mxGeometry x="0.2375" y="1" relative="1" as="geometry">
            <mxPoint as="offset" />
          </mxGeometry>
        </mxCell>
        <mxCell id="g8SVWHZAsRiCq_bppXQF-30" value="Nhân viên" style="shape=umlActor;verticalLabelPosition=bottom;verticalAlign=top;html=1;points=[[0,0.3333333333333333,0,0,0],[0,1,0,0,0],[0.25,0.1,0,0,0],[0.5,0,0,0,-6],[0.5,0.5,0,0,0],[0.7,0.5,0,0,0],[0.75,0.1,0,0,0],[0.8,0.5,0,0,0],[0.9,0.5,0,0,0],[1,1,0,0,0]];" vertex="1" parent="1">
          <mxGeometry x="350" y="710" width="30" height="60" as="geometry" />
        </mxCell>
        <mxCell id="g8SVWHZAsRiCq_bppXQF-31" value="Admin" style="shape=umlActor;verticalLabelPosition=bottom;verticalAlign=top;html=1;points=[[0,0.3333333333333333,0,0,0],[0,1,0,0,0],[0.25,0.1,0,0,0],[0.5,0,0,0,-7],[0.5,0.5,0,0,0],[0.5,1,0,0,25],[0.75,0.1,0,0,0],[0.9,0.5,0,0,0],[1,1,0,0,0]];" vertex="1" parent="1">
          <mxGeometry x="350" y="420" width="30" height="60" as="geometry" />
        </mxCell>
        <mxCell id="g8SVWHZAsRiCq_bppXQF-34" value="Login" style="ellipse;whiteSpace=wrap;html=1;" vertex="1" parent="1">
          <mxGeometry x="305" y="560" width="120" height="80" as="geometry" />
        </mxCell>
        <mxCell id="g8SVWHZAsRiCq_bppXQF-35" value="" style="endArrow=none;html=1;rounded=0;entryX=0.5;entryY=1;entryDx=0;entryDy=25;entryPerimeter=0;exitX=0.5;exitY=0;exitDx=0;exitDy=0;" edge="1" parent="1" source="g8SVWHZAsRiCq_bppXQF-34" target="g8SVWHZAsRiCq_bppXQF-31">
          <mxGeometry width="50" height="50" relative="1" as="geometry">
            <mxPoint x="350" y="590" as="sourcePoint" />
            <mxPoint x="400" y="540" as="targetPoint" />
          </mxGeometry>
        </mxCell>
        <mxCell id="g8SVWHZAsRiCq_bppXQF-36" value="" style="endArrow=none;html=1;rounded=0;entryX=0.5;entryY=1;entryDx=0;entryDy=0;exitX=0.5;exitY=0;exitDx=0;exitDy=-6;exitPerimeter=0;" edge="1" parent="1" source="g8SVWHZAsRiCq_bppXQF-30" target="g8SVWHZAsRiCq_bppXQF-34">
          <mxGeometry width="50" height="50" relative="1" as="geometry">
            <mxPoint x="390" y="670" as="sourcePoint" />
            <mxPoint x="375" y="515" as="targetPoint" />
          </mxGeometry>
        </mxCell>
        <mxCell id="g8SVWHZAsRiCq_bppXQF-37" value="Phân quyền" style="ellipse;whiteSpace=wrap;html=1;" vertex="1" parent="1">
          <mxGeometry x="305" y="270" width="120" height="80" as="geometry" />
        </mxCell>
        <mxCell id="g8SVWHZAsRiCq_bppXQF-38" value="Cập nhật chức năng" style="ellipse;whiteSpace=wrap;html=1;" vertex="1" parent="1">
          <mxGeometry x="440" y="270" width="120" height="80" as="geometry" />
        </mxCell>
        <mxCell id="g8SVWHZAsRiCq_bppXQF-39" value="" style="endArrow=none;html=1;rounded=0;exitX=0.5;exitY=0;exitDx=0;exitDy=-7;exitPerimeter=0;entryX=0.5;entryY=1;entryDx=0;entryDy=0;" edge="1" parent="1" source="g8SVWHZAsRiCq_bppXQF-31" target="g8SVWHZAsRiCq_bppXQF-37">
          <mxGeometry width="50" height="50" relative="1" as="geometry">
            <mxPoint x="410" y="410" as="sourcePoint" />
            <mxPoint x="420" y="360" as="targetPoint" />
          </mxGeometry>
        </mxCell>
        <mxCell id="g8SVWHZAsRiCq_bppXQF-40" value="" style="endArrow=none;html=1;rounded=0;exitX=0.5;exitY=0;exitDx=0;exitDy=-7;exitPerimeter=0;entryX=0.5;entryY=1;entryDx=0;entryDy=0;" edge="1" parent="1" source="g8SVWHZAsRiCq_bppXQF-31" target="g8SVWHZAsRiCq_bppXQF-38">
          <mxGeometry width="50" height="50" relative="1" as="geometry">
            <mxPoint x="375" y="423" as="sourcePoint" />
            <mxPoint x="375" y="360" as="targetPoint" />
          </mxGeometry>
        </mxCell>
        <mxCell id="g8SVWHZAsRiCq_bppXQF-41" value="Quản lý người dùng" style="ellipse;whiteSpace=wrap;html=1;" vertex="1" parent="1">
          <mxGeometry x="180" y="270" width="120" height="80" as="geometry" />
        </mxCell>
        <mxCell id="g8SVWHZAsRiCq_bppXQF-42" value="" style="endArrow=none;html=1;rounded=0;exitX=0.5;exitY=0;exitDx=0;exitDy=-7;exitPerimeter=0;entryX=0.5;entryY=1;entryDx=0;entryDy=0;" edge="1" parent="1" source="g8SVWHZAsRiCq_bppXQF-31" target="g8SVWHZAsRiCq_bppXQF-41">
          <mxGeometry width="50" height="50" relative="1" as="geometry">
            <mxPoint x="375" y="423" as="sourcePoint" />
            <mxPoint x="375" y="360" as="targetPoint" />
          </mxGeometry>
        </mxCell>
        <mxCell id="g8SVWHZAsRiCq_bppXQF-43" value="Quản lý bán hàng" style="ellipse;whiteSpace=wrap;html=1;" vertex="1" parent="1">
          <mxGeometry x="550" y="350" width="120" height="80" as="geometry" />
        </mxCell>
        <mxCell id="g8SVWHZAsRiCq_bppXQF-44" value="Quản lý nhân viên&amp;nbsp;" style="ellipse;whiteSpace=wrap;html=1;" vertex="1" parent="1">
          <mxGeometry x="550" y="530" width="120" height="80" as="geometry" />
        </mxCell>
        <mxCell id="g8SVWHZAsRiCq_bppXQF-45" value="Quản lý khách hàng" style="ellipse;whiteSpace=wrap;html=1;" vertex="1" parent="1">
          <mxGeometry x="550" y="440" width="120" height="80" as="geometry" />
        </mxCell>
        <mxCell id="g8SVWHZAsRiCq_bppXQF-46" value="Quản lý nhà cung cấp" style="ellipse;whiteSpace=wrap;html=1;" vertex="1" parent="1">
          <mxGeometry x="550" y="620" width="120" height="80" as="geometry" />
        </mxCell>
        <mxCell id="g8SVWHZAsRiCq_bppXQF-47" value="Thống kê" style="ellipse;whiteSpace=wrap;html=1;" vertex="1" parent="1">
          <mxGeometry x="550" y="710" width="120" height="80" as="geometry" />
        </mxCell>
        <mxCell id="g8SVWHZAsRiCq_bppXQF-48" value="Quản lý nhập hàng" style="ellipse;whiteSpace=wrap;html=1;" vertex="1" parent="1">
          <mxGeometry x="550" y="800" width="120" height="80" as="geometry" />
        </mxCell>
        <mxCell id="g8SVWHZAsRiCq_bppXQF-49" value="Quản lý hàng hóa" style="ellipse;whiteSpace=wrap;html=1;" vertex="1" parent="1">
          <mxGeometry x="550" y="890" width="120" height="80" as="geometry" />
        </mxCell>
        <mxCell id="g8SVWHZAsRiCq_bppXQF-50" value="" style="endArrow=none;html=1;rounded=0;exitX=0.9;exitY=0.5;exitDx=0;exitDy=0;exitPerimeter=0;entryX=0;entryY=0.5;entryDx=0;entryDy=0;" edge="1" parent="1" source="g8SVWHZAsRiCq_bppXQF-30" target="g8SVWHZAsRiCq_bppXQF-44">
          <mxGeometry width="50" height="50" relative="1" as="geometry">
            <mxPoint x="440" y="520" as="sourcePoint" />
            <mxPoint x="490" y="470" as="targetPoint" />
          </mxGeometry>
        </mxCell>
        <mxCell id="g8SVWHZAsRiCq_bppXQF-51" value="" style="endArrow=none;html=1;rounded=0;exitX=0.9;exitY=0.5;exitDx=0;exitDy=0;entryX=0;entryY=0.5;entryDx=0;entryDy=0;exitPerimeter=0;" edge="1" parent="1" source="g8SVWHZAsRiCq_bppXQF-30" target="g8SVWHZAsRiCq_bppXQF-43">
          <mxGeometry width="50" height="50" relative="1" as="geometry">
            <mxPoint x="450" y="530" as="sourcePoint" />
            <mxPoint x="500" y="480" as="targetPoint" />
          </mxGeometry>
        </mxCell>
        <mxCell id="g8SVWHZAsRiCq_bppXQF-53" value="" style="endArrow=none;html=1;rounded=0;entryX=0;entryY=0.5;entryDx=0;entryDy=0;exitX=0.9;exitY=0.5;exitDx=0;exitDy=0;exitPerimeter=0;" edge="1" parent="1" source="g8SVWHZAsRiCq_bppXQF-30" target="g8SVWHZAsRiCq_bppXQF-45">
          <mxGeometry width="50" height="50" relative="1" as="geometry">
            <mxPoint x="410" y="750" as="sourcePoint" />
            <mxPoint x="560" y="490" as="targetPoint" />
          </mxGeometry>
        </mxCell>
        <mxCell id="g8SVWHZAsRiCq_bppXQF-54" value="" style="endArrow=none;html=1;rounded=0;entryX=0;entryY=0.5;entryDx=0;entryDy=0;exitX=0.9;exitY=0.5;exitDx=0;exitDy=0;exitPerimeter=0;" edge="1" parent="1" source="g8SVWHZAsRiCq_bppXQF-30" target="g8SVWHZAsRiCq_bppXQF-46">
          <mxGeometry width="50" height="50" relative="1" as="geometry">
            <mxPoint x="387" y="750" as="sourcePoint" />
            <mxPoint x="560" y="580" as="targetPoint" />
          </mxGeometry>
        </mxCell>
        <mxCell id="g8SVWHZAsRiCq_bppXQF-55" value="" style="endArrow=none;html=1;rounded=0;entryX=0;entryY=0.5;entryDx=0;entryDy=0;exitX=0.9;exitY=0.5;exitDx=0;exitDy=0;exitPerimeter=0;" edge="1" parent="1" source="g8SVWHZAsRiCq_bppXQF-30" target="g8SVWHZAsRiCq_bppXQF-47">
          <mxGeometry width="50" height="50" relative="1" as="geometry">
            <mxPoint x="430" y="730" as="sourcePoint" />
            <mxPoint x="560" y="670" as="targetPoint" />
          </mxGeometry>
        </mxCell>
        <mxCell id="g8SVWHZAsRiCq_bppXQF-56" value="" style="endArrow=none;html=1;rounded=0;entryX=0;entryY=0.5;entryDx=0;entryDy=0;exitX=0.9;exitY=0.5;exitDx=0;exitDy=0;exitPerimeter=0;" edge="1" parent="1" source="g8SVWHZAsRiCq_bppXQF-30" target="g8SVWHZAsRiCq_bppXQF-48">
          <mxGeometry width="50" height="50" relative="1" as="geometry">
            <mxPoint x="380" y="740" as="sourcePoint" />
            <mxPoint x="560" y="790" as="targetPoint" />
          </mxGeometry>
        </mxCell>
        <mxCell id="g8SVWHZAsRiCq_bppXQF-58" value="" style="endArrow=none;html=1;rounded=0;entryX=0;entryY=0.5;entryDx=0;entryDy=0;exitX=0.9;exitY=0.5;exitDx=0;exitDy=0;exitPerimeter=0;" edge="1" parent="1" source="g8SVWHZAsRiCq_bppXQF-30" target="g8SVWHZAsRiCq_bppXQF-49">
          <mxGeometry width="50" height="50" relative="1" as="geometry">
            <mxPoint x="340" y="770" as="sourcePoint" />
            <mxPoint x="540" y="840" as="targetPoint" />
          </mxGeometry>
        </mxCell>
        <mxCell id="g8SVWHZAsRiCq_bppXQF-59" value="Nhân viên kho" style="shape=umlActor;verticalLabelPosition=bottom;verticalAlign=top;html=1;outlineConnect=0;points=[[0,1,0,0,0],[0.1,0.5,0,0,0],[0.25,0.1,0,0,0],[0.5,0,0,0,0],[0.5,0.5,0,0,0],[0.75,0.1,0,0,0],[1,0.3333333333333333,0,0,0],[1,1,0,0,0]];" vertex="1" parent="1">
          <mxGeometry x="790" y="850" width="30" height="60" as="geometry" />
        </mxCell>
        <mxCell id="g8SVWHZAsRiCq_bppXQF-60" value="" style="endArrow=none;html=1;rounded=0;exitX=1.006;exitY=0.547;exitDx=0;exitDy=0;exitPerimeter=0;entryX=0.1;entryY=0.5;entryDx=0;entryDy=0;entryPerimeter=0;" edge="1" parent="1" source="g8SVWHZAsRiCq_bppXQF-48" target="g8SVWHZAsRiCq_bppXQF-59">
          <mxGeometry width="50" height="50" relative="1" as="geometry">
            <mxPoint x="820" y="850" as="sourcePoint" />
            <mxPoint x="870" y="800" as="targetPoint" />
          </mxGeometry>
        </mxCell>
        <mxCell id="g8SVWHZAsRiCq_bppXQF-61" value="" style="endArrow=none;html=1;rounded=0;exitX=1;exitY=0.5;exitDx=0;exitDy=0;entryX=0.1;entryY=0.5;entryDx=0;entryDy=0;entryPerimeter=0;" edge="1" parent="1" source="g8SVWHZAsRiCq_bppXQF-49" target="g8SVWHZAsRiCq_bppXQF-59">
          <mxGeometry width="50" height="50" relative="1" as="geometry">
            <mxPoint x="681" y="854" as="sourcePoint" />
            <mxPoint x="803" y="880" as="targetPoint" />
          </mxGeometry>
        </mxCell>
        <mxCell id="g8SVWHZAsRiCq_bppXQF-62" value="Quản lý" style="shape=umlActor;verticalLabelPosition=bottom;verticalAlign=top;html=1;outlineConnect=0;points=[[0,1,0,0,0],[0.2,0.5,0,0,0],[0.25,0.1,0,0,0],[0.5,0,0,0,0],[0.5,0.5,0,0,0],[0.75,0.1,0,0,0],[1,0.3333333333333333,0,0,0],[1,1,0,0,0]];" vertex="1" parent="1">
          <mxGeometry x="790" y="600" width="30" height="60" as="geometry" />
        </mxCell>
        <mxCell id="g8SVWHZAsRiCq_bppXQF-63" value="Quản lý" style="shape=umlActor;verticalLabelPosition=bottom;verticalAlign=top;html=1;outlineConnect=0;points=[[0,1,0,0,0],[0.1,0.5,0,0,0],[0.25,0.1,0,0,0],[0.5,0,0,0,0],[0.5,0.5,0,0,0],[0.75,0.1,0,0,0],[1,0.3333333333333333,0,0,0],[1,1,0,0,0]];" vertex="1" parent="1">
          <mxGeometry x="790" y="390" width="30" height="60" as="geometry" />
        </mxCell>
        <mxCell id="g8SVWHZAsRiCq_bppXQF-64" value="" style="endArrow=none;html=1;rounded=0;exitX=1;exitY=0.5;exitDx=0;exitDy=0;entryX=0.2;entryY=0.5;entryDx=0;entryDy=0;entryPerimeter=0;" edge="1" parent="1" source="g8SVWHZAsRiCq_bppXQF-49" target="g8SVWHZAsRiCq_bppXQF-62">
          <mxGeometry width="50" height="50" relative="1" as="geometry">
            <mxPoint x="681" y="727" as="sourcePoint" />
            <mxPoint x="803" y="753" as="targetPoint" />
          </mxGeometry>
        </mxCell>
        <mxCell id="g8SVWHZAsRiCq_bppXQF-66" value="" style="endArrow=none;html=1;rounded=0;exitX=1;exitY=0.5;exitDx=0;exitDy=0;entryX=0.2;entryY=0.5;entryDx=0;entryDy=0;entryPerimeter=0;" edge="1" parent="1" source="g8SVWHZAsRiCq_bppXQF-48" target="g8SVWHZAsRiCq_bppXQF-62">
          <mxGeometry width="50" height="50" relative="1" as="geometry">
            <mxPoint x="680" y="940" as="sourcePoint" />
            <mxPoint x="740" y="650" as="targetPoint" />
          </mxGeometry>
        </mxCell>
        <mxCell id="g8SVWHZAsRiCq_bppXQF-67" value="" style="endArrow=none;html=1;rounded=0;exitX=1;exitY=0.5;exitDx=0;exitDy=0;entryX=0.2;entryY=0.5;entryDx=0;entryDy=0;entryPerimeter=0;" edge="1" parent="1" source="g8SVWHZAsRiCq_bppXQF-47" target="g8SVWHZAsRiCq_bppXQF-62">
          <mxGeometry width="50" height="50" relative="1" as="geometry">
            <mxPoint x="680" y="850" as="sourcePoint" />
            <mxPoint x="930" y="610" as="targetPoint" />
          </mxGeometry>
        </mxCell>
        <mxCell id="g8SVWHZAsRiCq_bppXQF-68" value="" style="endArrow=none;html=1;rounded=0;entryX=0.2;entryY=0.5;entryDx=0;entryDy=0;entryPerimeter=0;exitX=1;exitY=0.5;exitDx=0;exitDy=0;" edge="1" parent="1" source="g8SVWHZAsRiCq_bppXQF-46" target="g8SVWHZAsRiCq_bppXQF-62">
          <mxGeometry width="50" height="50" relative="1" as="geometry">
            <mxPoint x="680" y="670" as="sourcePoint" />
            <mxPoint x="946" y="620" as="targetPoint" />
          </mxGeometry>
        </mxCell>
        <mxCell id="g8SVWHZAsRiCq_bppXQF-69" value="" style="endArrow=none;html=1;rounded=0;exitX=1;exitY=0.5;exitDx=0;exitDy=0;entryX=0.2;entryY=0.5;entryDx=0;entryDy=0;entryPerimeter=0;" edge="1" parent="1" source="g8SVWHZAsRiCq_bppXQF-45" target="g8SVWHZAsRiCq_bppXQF-62">
          <mxGeometry width="50" height="50" relative="1" as="geometry">
            <mxPoint x="682" y="674" as="sourcePoint" />
            <mxPoint x="946" y="620" as="targetPoint" />
          </mxGeometry>
        </mxCell>
        <mxCell id="g8SVWHZAsRiCq_bppXQF-70" value="" style="endArrow=none;html=1;rounded=0;exitX=1;exitY=0.5;exitDx=0;exitDy=0;entryX=0.2;entryY=0.5;entryDx=0;entryDy=0;entryPerimeter=0;" edge="1" parent="1" source="g8SVWHZAsRiCq_bppXQF-44" target="g8SVWHZAsRiCq_bppXQF-62">
          <mxGeometry width="50" height="50" relative="1" as="geometry">
            <mxPoint x="680" y="580" as="sourcePoint" />
            <mxPoint x="1050" y="610" as="targetPoint" />
          </mxGeometry>
        </mxCell>
        <mxCell id="g8SVWHZAsRiCq_bppXQF-72" value="" style="endArrow=none;html=1;rounded=0;exitX=1;exitY=0.5;exitDx=0;exitDy=0;entryX=0.1;entryY=0.5;entryDx=0;entryDy=0;entryPerimeter=0;" edge="1" parent="1" source="g8SVWHZAsRiCq_bppXQF-43" target="g8SVWHZAsRiCq_bppXQF-63">
          <mxGeometry width="50" height="50" relative="1" as="geometry">
            <mxPoint x="740" y="350" as="sourcePoint" />
            <mxPoint x="876" y="600" as="targetPoint" />
          </mxGeometry>
        </mxCell>
        <mxCell id="g8SVWHZAsRiCq_bppXQF-73" value="" style="endArrow=none;html=1;rounded=0;exitX=1;exitY=0.5;exitDx=0;exitDy=0;entryX=0.1;entryY=0.5;entryDx=0;entryDy=0;entryPerimeter=0;" edge="1" parent="1" source="g8SVWHZAsRiCq_bppXQF-45" target="g8SVWHZAsRiCq_bppXQF-63">
          <mxGeometry width="50" height="50" relative="1" as="geometry">
            <mxPoint x="680" y="400" as="sourcePoint" />
            <mxPoint x="790" y="430" as="targetPoint" />
          </mxGeometry>
        </mxCell>
        <mxCell id="g8SVWHZAsRiCq_bppXQF-74" value="" style="endArrow=none;html=1;rounded=0;entryX=1;entryY=0.5;entryDx=0;entryDy=0;exitX=0.2;exitY=0.5;exitDx=0;exitDy=0;exitPerimeter=0;" edge="1" parent="1" source="g8SVWHZAsRiCq_bppXQF-62" target="g8SVWHZAsRiCq_bppXQF-43">
          <mxGeometry width="50" height="50" relative="1" as="geometry">
            <mxPoint x="780" y="550" as="sourcePoint" />
            <mxPoint x="830" y="520" as="targetPoint" />
          </mxGeometry>
        </mxCell>
        <mxCell id="g8SVWHZAsRiCq_bppXQF-77" value="Quản lý bán hàng" style="ellipse;whiteSpace=wrap;html=1;" vertex="1" parent="1">
          <mxGeometry x="330" y="1310" width="120" height="80" as="geometry" />
        </mxCell>
        <mxCell id="g8SVWHZAsRiCq_bppXQF-78" value="Quản lý khách hàng" style="ellipse;whiteSpace=wrap;html=1;" vertex="1" parent="1">
          <mxGeometry x="330" y="1580" width="120" height="80" as="geometry" />
        </mxCell>
        <mxCell id="g8SVWHZAsRiCq_bppXQF-79" value="Login" style="ellipse;whiteSpace=wrap;html=1;" vertex="1" parent="1">
          <mxGeometry x="330" y="1860" width="120" height="80" as="geometry" />
        </mxCell>
        <mxCell id="g8SVWHZAsRiCq_bppXQF-80" value="Quên mật khẩu" style="ellipse;whiteSpace=wrap;html=1;" vertex="1" parent="1">
          <mxGeometry x="530" y="1860" width="120" height="80" as="geometry" />
        </mxCell>
        <mxCell id="g8SVWHZAsRiCq_bppXQF-81" value="Gửi yêu cầu đặt lại mật khẩu" style="ellipse;whiteSpace=wrap;html=1;" vertex="1" parent="1">
          <mxGeometry x="730" y="1860" width="120" height="80" as="geometry" />
        </mxCell>
        <mxCell id="g8SVWHZAsRiCq_bppXQF-82" value="Thêm khách hàng" style="ellipse;whiteSpace=wrap;html=1;" vertex="1" parent="1">
          <mxGeometry x="520" y="1520" width="120" height="80" as="geometry" />
        </mxCell>
        <mxCell id="g8SVWHZAsRiCq_bppXQF-83" value="Nhập thông tin khách hàng" style="ellipse;whiteSpace=wrap;html=1;" vertex="1" parent="1">
          <mxGeometry x="720" y="1470" width="120" height="80" as="geometry" />
        </mxCell>
        <mxCell id="g8SVWHZAsRiCq_bppXQF-84" value="Đăng kí thành viên cho khách hàng" style="ellipse;whiteSpace=wrap;html=1;" vertex="1" parent="1">
          <mxGeometry x="720" y="1570" width="120" height="80" as="geometry" />
        </mxCell>
        <mxCell id="g8SVWHZAsRiCq_bppXQF-87" value="" style="endArrow=open;endSize=12;dashed=1;html=1;rounded=0;exitX=1;exitY=0.5;exitDx=0;exitDy=0;entryX=0;entryY=0.5;entryDx=0;entryDy=0;" edge="1" parent="1" source="g8SVWHZAsRiCq_bppXQF-82" target="g8SVWHZAsRiCq_bppXQF-83">
          <mxGeometry width="160" relative="1" as="geometry">
            <mxPoint x="460" y="1630" as="sourcePoint" />
            <mxPoint x="530" y="1570" as="targetPoint" />
          </mxGeometry>
        </mxCell>
        <mxCell id="g8SVWHZAsRiCq_bppXQF-88" value="include" style="edgeLabel;html=1;align=center;verticalAlign=middle;resizable=0;points=[];" vertex="1" connectable="0" parent="g8SVWHZAsRiCq_bppXQF-87">
          <mxGeometry x="0.2375" y="1" relative="1" as="geometry">
            <mxPoint as="offset" />
          </mxGeometry>
        </mxCell>
        <mxCell id="g8SVWHZAsRiCq_bppXQF-89" value="" style="endArrow=open;endSize=12;dashed=1;html=1;rounded=0;exitX=0;exitY=0.5;exitDx=0;exitDy=0;entryX=1;entryY=0.5;entryDx=0;entryDy=0;" edge="1" parent="1" source="g8SVWHZAsRiCq_bppXQF-82" target="g8SVWHZAsRiCq_bppXQF-78">
          <mxGeometry width="160" relative="1" as="geometry">
            <mxPoint x="540" y="1820" as="sourcePoint" />
            <mxPoint x="460" y="1820" as="targetPoint" />
          </mxGeometry>
        </mxCell>
        <mxCell id="g8SVWHZAsRiCq_bppXQF-90" value="extend" style="edgeLabel;html=1;align=center;verticalAlign=middle;resizable=0;points=[];" vertex="1" connectable="0" parent="g8SVWHZAsRiCq_bppXQF-89">
          <mxGeometry x="0.2375" y="1" relative="1" as="geometry">
            <mxPoint as="offset" />
          </mxGeometry>
        </mxCell>
        <mxCell id="g8SVWHZAsRiCq_bppXQF-91" value="" style="endArrow=open;endSize=12;dashed=1;html=1;rounded=0;exitX=1;exitY=0.5;exitDx=0;exitDy=0;entryX=0;entryY=0.5;entryDx=0;entryDy=0;" edge="1" parent="1" source="g8SVWHZAsRiCq_bppXQF-82" target="g8SVWHZAsRiCq_bppXQF-84">
          <mxGeometry width="160" relative="1" as="geometry">
            <mxPoint x="650" y="1570" as="sourcePoint" />
            <mxPoint x="730" y="1520" as="targetPoint" />
          </mxGeometry>
        </mxCell>
        <mxCell id="g8SVWHZAsRiCq_bppXQF-92" value="include" style="edgeLabel;html=1;align=center;verticalAlign=middle;resizable=0;points=[];" vertex="1" connectable="0" parent="g8SVWHZAsRiCq_bppXQF-91">
          <mxGeometry x="0.2375" y="1" relative="1" as="geometry">
            <mxPoint as="offset" />
          </mxGeometry>
        </mxCell>
        <mxCell id="g8SVWHZAsRiCq_bppXQF-94" value="Tìm kiếm thông tin khách hàng" style="ellipse;whiteSpace=wrap;html=1;" vertex="1" parent="1">
          <mxGeometry x="520" y="1680" width="120" height="80" as="geometry" />
        </mxCell>
        <mxCell id="g8SVWHZAsRiCq_bppXQF-95" value="" style="endArrow=open;endSize=12;dashed=1;html=1;rounded=0;exitX=0;exitY=0.5;exitDx=0;exitDy=0;entryX=1;entryY=0.5;entryDx=0;entryDy=0;" edge="1" parent="1" source="g8SVWHZAsRiCq_bppXQF-94" target="g8SVWHZAsRiCq_bppXQF-78">
          <mxGeometry width="160" relative="1" as="geometry">
            <mxPoint x="530" y="1570" as="sourcePoint" />
            <mxPoint x="460" y="1630" as="targetPoint" />
          </mxGeometry>
        </mxCell>
        <mxCell id="g8SVWHZAsRiCq_bppXQF-96" value="extend" style="edgeLabel;html=1;align=center;verticalAlign=middle;resizable=0;points=[];" vertex="1" connectable="0" parent="g8SVWHZAsRiCq_bppXQF-95">
          <mxGeometry x="0.2375" y="1" relative="1" as="geometry">
            <mxPoint as="offset" />
          </mxGeometry>
        </mxCell>
        <mxCell id="g8SVWHZAsRiCq_bppXQF-97" value="Tìm kiếm theo tên" style="ellipse;whiteSpace=wrap;html=1;" vertex="1" parent="1">
          <mxGeometry x="700" y="1680" width="120" height="80" as="geometry" />
        </mxCell>
        <mxCell id="g8SVWHZAsRiCq_bppXQF-98" value="" style="endArrow=open;endSize=12;dashed=1;html=1;rounded=0;exitX=1;exitY=0.5;exitDx=0;exitDy=0;entryX=0;entryY=0.5;entryDx=0;entryDy=0;" edge="1" parent="1" source="g8SVWHZAsRiCq_bppXQF-94" target="g8SVWHZAsRiCq_bppXQF-97">
          <mxGeometry width="160" relative="1" as="geometry">
            <mxPoint x="650" y="1570" as="sourcePoint" />
            <mxPoint x="730" y="1620" as="targetPoint" />
          </mxGeometry>
        </mxCell>
        <mxCell id="g8SVWHZAsRiCq_bppXQF-99" value="include" style="edgeLabel;html=1;align=center;verticalAlign=middle;resizable=0;points=[];" vertex="1" connectable="0" parent="g8SVWHZAsRiCq_bppXQF-98">
          <mxGeometry x="0.2375" y="1" relative="1" as="geometry">
            <mxPoint as="offset" />
          </mxGeometry>
        </mxCell>
        <mxCell id="g8SVWHZAsRiCq_bppXQF-100" value="Tìm kiếm theo số điện thoại" style="ellipse;whiteSpace=wrap;html=1;" vertex="1" parent="1">
          <mxGeometry x="630" y="1770" width="120" height="80" as="geometry" />
        </mxCell>
        <mxCell id="g8SVWHZAsRiCq_bppXQF-101" value="" style="endArrow=open;endSize=12;dashed=1;html=1;rounded=0;exitX=1;exitY=0.5;exitDx=0;exitDy=0;entryX=0.327;entryY=0.046;entryDx=0;entryDy=0;entryPerimeter=0;" edge="1" parent="1" source="g8SVWHZAsRiCq_bppXQF-94" target="g8SVWHZAsRiCq_bppXQF-100">
          <mxGeometry width="160" relative="1" as="geometry">
            <mxPoint x="650" y="1730" as="sourcePoint" />
            <mxPoint x="710" y="1730" as="targetPoint" />
          </mxGeometry>
        </mxCell>
        <mxCell id="g8SVWHZAsRiCq_bppXQF-102" value="include" style="edgeLabel;html=1;align=center;verticalAlign=middle;resizable=0;points=[];" vertex="1" connectable="0" parent="g8SVWHZAsRiCq_bppXQF-101">
          <mxGeometry x="0.2375" y="1" relative="1" as="geometry">
            <mxPoint as="offset" />
          </mxGeometry>
        </mxCell>
        <mxCell id="g8SVWHZAsRiCq_bppXQF-103" value="Nhân viên kho" style="shape=umlActor;verticalLabelPosition=bottom;verticalAlign=top;html=1;outlineConnect=0;points=[[0,1,0,0,0],[0.1,0.5,0,0,0],[0.25,0.1,0,0,0],[0.5,0,0,0,0],[0.5,0.5,0,0,0],[0.75,0.1,0,0,0],[0.8,0.5,0,0,0],[1,1,0,0,0]];" vertex="1" parent="1">
          <mxGeometry x="1170" y="720" width="30" height="60" as="geometry" />
        </mxCell>
        <mxCell id="g8SVWHZAsRiCq_bppXQF-104" value="Quản lý nhập hàng" style="ellipse;whiteSpace=wrap;html=1;" vertex="1" parent="1">
          <mxGeometry x="1290" y="510" width="120" height="80" as="geometry" />
        </mxCell>
        <mxCell id="g8SVWHZAsRiCq_bppXQF-105" value="Quản lý hàng hóa" style="ellipse;whiteSpace=wrap;html=1;" vertex="1" parent="1">
          <mxGeometry x="1290" y="740" width="120" height="80" as="geometry" />
        </mxCell>
        <mxCell id="g8SVWHZAsRiCq_bppXQF-106" value="" style="endArrow=none;html=1;rounded=0;exitX=0.8;exitY=0.5;exitDx=0;exitDy=0;exitPerimeter=0;entryX=0;entryY=0.5;entryDx=0;entryDy=0;" edge="1" parent="1" source="g8SVWHZAsRiCq_bppXQF-103" target="g8SVWHZAsRiCq_bppXQF-104">
          <mxGeometry width="50" height="50" relative="1" as="geometry">
            <mxPoint x="1290" y="710" as="sourcePoint" />
            <mxPoint x="1470" y="640" as="targetPoint" />
          </mxGeometry>
        </mxCell>
        <mxCell id="g8SVWHZAsRiCq_bppXQF-107" value="" style="endArrow=none;html=1;rounded=0;exitX=0.8;exitY=0.5;exitDx=0;exitDy=0;exitPerimeter=0;entryX=0;entryY=0.5;entryDx=0;entryDy=0;" edge="1" parent="1" source="g8SVWHZAsRiCq_bppXQF-103" target="g8SVWHZAsRiCq_bppXQF-105">
          <mxGeometry width="50" height="50" relative="1" as="geometry">
            <mxPoint x="1234" y="710" as="sourcePoint" />
            <mxPoint x="1480" y="650" as="targetPoint" />
          </mxGeometry>
        </mxCell>
        <mxCell id="g8SVWHZAsRiCq_bppXQF-108" value="" style="endArrow=open;endSize=12;dashed=1;html=1;rounded=0;exitX=0;exitY=0.5;exitDx=0;exitDy=0;entryX=1;entryY=0.5;entryDx=0;entryDy=0;" edge="1" parent="1" source="g8SVWHZAsRiCq_bppXQF-113" target="g8SVWHZAsRiCq_bppXQF-112">
          <mxGeometry width="160" relative="1" as="geometry">
            <mxPoint x="1550" y="990" as="sourcePoint" />
            <mxPoint x="1430.0000000000039" y="990" as="targetPoint" />
          </mxGeometry>
        </mxCell>
        <mxCell id="g8SVWHZAsRiCq_bppXQF-109" value="extend" style="edgeLabel;html=1;align=center;verticalAlign=middle;resizable=0;points=[];" vertex="1" connectable="0" parent="g8SVWHZAsRiCq_bppXQF-108">
          <mxGeometry x="0.2375" y="1" relative="1" as="geometry">
            <mxPoint as="offset" />
          </mxGeometry>
        </mxCell>
        <mxCell id="g8SVWHZAsRiCq_bppXQF-110" value="" style="endArrow=open;endSize=12;dashed=1;html=1;rounded=0;exitX=1;exitY=0.5;exitDx=0;exitDy=0;entryX=0;entryY=0.5;entryDx=0;entryDy=0;" edge="1" parent="1" source="g8SVWHZAsRiCq_bppXQF-113" target="g8SVWHZAsRiCq_bppXQF-114">
          <mxGeometry width="160" relative="1" as="geometry">
            <mxPoint x="1630" y="990" as="sourcePoint" />
            <mxPoint x="1720" y="990" as="targetPoint" />
          </mxGeometry>
        </mxCell>
        <mxCell id="g8SVWHZAsRiCq_bppXQF-111" value="include" style="edgeLabel;html=1;align=center;verticalAlign=middle;resizable=0;points=[];" vertex="1" connectable="0" parent="g8SVWHZAsRiCq_bppXQF-110">
          <mxGeometry x="0.2375" y="1" relative="1" as="geometry">
            <mxPoint as="offset" />
          </mxGeometry>
        </mxCell>
        <mxCell id="g8SVWHZAsRiCq_bppXQF-112" value="Login" style="ellipse;whiteSpace=wrap;html=1;" vertex="1" parent="1">
          <mxGeometry x="1300" y="920" width="120" height="80" as="geometry" />
        </mxCell>
        <mxCell id="g8SVWHZAsRiCq_bppXQF-113" value="Quên mật khẩu" style="ellipse;whiteSpace=wrap;html=1;" vertex="1" parent="1">
          <mxGeometry x="1500" y="920" width="120" height="80" as="geometry" />
        </mxCell>
        <mxCell id="g8SVWHZAsRiCq_bppXQF-114" value="Gửi yêu cầu đặt lại mật khẩu" style="ellipse;whiteSpace=wrap;html=1;" vertex="1" parent="1">
          <mxGeometry x="1700" y="920" width="120" height="80" as="geometry" />
        </mxCell>
        <mxCell id="g8SVWHZAsRiCq_bppXQF-122" value="Tạo hóa đơn nhập hàng" style="ellipse;whiteSpace=wrap;html=1;" vertex="1" parent="1">
          <mxGeometry x="1450" y="470" width="120" height="80" as="geometry" />
        </mxCell>
        <mxCell id="g8SVWHZAsRiCq_bppXQF-123" value="Xác nhận nhận hàng" style="ellipse;whiteSpace=wrap;html=1;" vertex="1" parent="1">
          <mxGeometry x="1450" y="560" width="120" height="80" as="geometry" />
        </mxCell>
        <mxCell id="g8SVWHZAsRiCq_bppXQF-125" value="" style="endArrow=open;endSize=12;dashed=1;html=1;rounded=0;exitX=1;exitY=0.5;exitDx=0;exitDy=0;entryX=0;entryY=0.5;entryDx=0;entryDy=0;" edge="1" parent="1" source="g8SVWHZAsRiCq_bppXQF-104" target="g8SVWHZAsRiCq_bppXQF-122">
          <mxGeometry width="160" relative="1" as="geometry">
            <mxPoint x="1540" y="740" as="sourcePoint" />
            <mxPoint x="1660" y="620" as="targetPoint" />
          </mxGeometry>
        </mxCell>
        <mxCell id="g8SVWHZAsRiCq_bppXQF-126" value="include" style="edgeLabel;html=1;align=center;verticalAlign=middle;resizable=0;points=[];" vertex="1" connectable="0" parent="g8SVWHZAsRiCq_bppXQF-125">
          <mxGeometry x="0.2375" y="1" relative="1" as="geometry">
            <mxPoint as="offset" />
          </mxGeometry>
        </mxCell>
        <mxCell id="g8SVWHZAsRiCq_bppXQF-127" value="" style="endArrow=open;endSize=12;dashed=1;html=1;rounded=0;exitX=1;exitY=0.5;exitDx=0;exitDy=0;entryX=0;entryY=0.5;entryDx=0;entryDy=0;" edge="1" parent="1" source="g8SVWHZAsRiCq_bppXQF-104" target="g8SVWHZAsRiCq_bppXQF-123">
          <mxGeometry width="160" relative="1" as="geometry">
            <mxPoint x="1450" y="560" as="sourcePoint" />
            <mxPoint x="1530" y="500" as="targetPoint" />
          </mxGeometry>
        </mxCell>
        <mxCell id="g8SVWHZAsRiCq_bppXQF-128" value="include" style="edgeLabel;html=1;align=center;verticalAlign=middle;resizable=0;points=[];" vertex="1" connectable="0" parent="g8SVWHZAsRiCq_bppXQF-127">
          <mxGeometry x="0.2375" y="1" relative="1" as="geometry">
            <mxPoint as="offset" />
          </mxGeometry>
        </mxCell>
        <mxCell id="g8SVWHZAsRiCq_bppXQF-129" value="Sửa thông tin hàng hóa" style="ellipse;whiteSpace=wrap;html=1;" vertex="1" parent="1">
          <mxGeometry x="1450" y="650" width="120" height="80" as="geometry" />
        </mxCell>
        <mxCell id="g8SVWHZAsRiCq_bppXQF-130" value="Thêm hàng hóa" style="ellipse;whiteSpace=wrap;html=1;" vertex="1" parent="1">
          <mxGeometry x="1450" y="830" width="120" height="80" as="geometry" />
        </mxCell>
        <mxCell id="g8SVWHZAsRiCq_bppXQF-131" value="Xóa hàng hóa" style="ellipse;whiteSpace=wrap;html=1;" vertex="1" parent="1">
          <mxGeometry x="1600" y="700" width="120" height="80" as="geometry" />
        </mxCell>
        <mxCell id="g8SVWHZAsRiCq_bppXQF-132" value="" style="endArrow=open;endSize=12;dashed=1;html=1;rounded=0;exitX=1;exitY=0.5;exitDx=0;exitDy=0;entryX=0;entryY=0.5;entryDx=0;entryDy=0;" edge="1" parent="1" source="g8SVWHZAsRiCq_bppXQF-105" target="g8SVWHZAsRiCq_bppXQF-129">
          <mxGeometry width="160" relative="1" as="geometry">
            <mxPoint x="1420" y="560" as="sourcePoint" />
            <mxPoint x="1460" y="610" as="targetPoint" />
          </mxGeometry>
        </mxCell>
        <mxCell id="g8SVWHZAsRiCq_bppXQF-133" value="include" style="edgeLabel;html=1;align=center;verticalAlign=middle;resizable=0;points=[];" vertex="1" connectable="0" parent="g8SVWHZAsRiCq_bppXQF-132">
          <mxGeometry x="0.2375" y="1" relative="1" as="geometry">
            <mxPoint as="offset" />
          </mxGeometry>
        </mxCell>
        <mxCell id="g8SVWHZAsRiCq_bppXQF-134" value="" style="endArrow=open;endSize=12;dashed=1;html=1;rounded=0;exitX=1;exitY=0.5;exitDx=0;exitDy=0;entryX=0;entryY=0.5;entryDx=0;entryDy=0;" edge="1" parent="1" source="g8SVWHZAsRiCq_bppXQF-105" target="g8SVWHZAsRiCq_bppXQF-130">
          <mxGeometry width="160" relative="1" as="geometry">
            <mxPoint x="1420" y="760" as="sourcePoint" />
            <mxPoint x="1460" y="700" as="targetPoint" />
          </mxGeometry>
        </mxCell>
        <mxCell id="g8SVWHZAsRiCq_bppXQF-135" value="include" style="edgeLabel;html=1;align=center;verticalAlign=middle;resizable=0;points=[];" vertex="1" connectable="0" parent="g8SVWHZAsRiCq_bppXQF-134">
          <mxGeometry x="0.2375" y="1" relative="1" as="geometry">
            <mxPoint as="offset" />
          </mxGeometry>
        </mxCell>
        <mxCell id="g8SVWHZAsRiCq_bppXQF-136" value="" style="endArrow=open;endSize=12;dashed=1;html=1;rounded=0;exitX=1;exitY=0.5;exitDx=0;exitDy=0;entryX=0;entryY=0.5;entryDx=0;entryDy=0;" edge="1" parent="1" source="g8SVWHZAsRiCq_bppXQF-105" target="g8SVWHZAsRiCq_bppXQF-131">
          <mxGeometry width="160" relative="1" as="geometry">
            <mxPoint x="1420" y="760" as="sourcePoint" />
            <mxPoint x="1460" y="700" as="targetPoint" />
          </mxGeometry>
        </mxCell>
        <mxCell id="g8SVWHZAsRiCq_bppXQF-137" value="include" style="edgeLabel;html=1;align=center;verticalAlign=middle;resizable=0;points=[];" vertex="1" connectable="0" parent="g8SVWHZAsRiCq_bppXQF-136">
          <mxGeometry x="0.2375" y="1" relative="1" as="geometry">
            <mxPoint as="offset" />
          </mxGeometry>
        </mxCell>
        <mxCell id="g8SVWHZAsRiCq_bppXQF-138" value="" style="endArrow=none;html=1;rounded=0;exitX=0.8;exitY=0.5;exitDx=0;exitDy=0;exitPerimeter=0;entryX=0;entryY=0.5;entryDx=0;entryDy=0;" edge="1" parent="1" source="g8SVWHZAsRiCq_bppXQF-103" target="g8SVWHZAsRiCq_bppXQF-112">
          <mxGeometry width="50" height="50" relative="1" as="geometry">
            <mxPoint x="1204" y="760" as="sourcePoint" />
            <mxPoint x="1300" y="760" as="targetPoint" />
          </mxGeometry>
        </mxCell>
        <mxCell id="g8SVWHZAsRiCq_bppXQF-139" value="Tìm kiếm hàng hóa" style="ellipse;whiteSpace=wrap;html=1;" vertex="1" parent="1">
          <mxGeometry x="1600" y="790" width="120" height="80" as="geometry" />
        </mxCell>
        <mxCell id="g8SVWHZAsRiCq_bppXQF-140" value="" style="endArrow=open;endSize=12;dashed=1;html=1;rounded=0;exitX=1;exitY=0.5;exitDx=0;exitDy=0;entryX=0;entryY=0.5;entryDx=0;entryDy=0;" edge="1" parent="1" source="g8SVWHZAsRiCq_bppXQF-105" target="g8SVWHZAsRiCq_bppXQF-139">
          <mxGeometry width="160" relative="1" as="geometry">
            <mxPoint x="1420" y="790" as="sourcePoint" />
            <mxPoint x="1610" y="750" as="targetPoint" />
          </mxGeometry>
        </mxCell>
        <mxCell id="g8SVWHZAsRiCq_bppXQF-141" value="include" style="edgeLabel;html=1;align=center;verticalAlign=middle;resizable=0;points=[];" vertex="1" connectable="0" parent="g8SVWHZAsRiCq_bppXQF-140">
          <mxGeometry x="0.2375" y="1" relative="1" as="geometry">
            <mxPoint as="offset" />
          </mxGeometry>
        </mxCell>
        <mxCell id="g8SVWHZAsRiCq_bppXQF-142" value="Theo tên&amp;nbsp;" style="ellipse;whiteSpace=wrap;html=1;" vertex="1" parent="1">
          <mxGeometry x="1770" y="740" width="120" height="80" as="geometry" />
        </mxCell>
        <mxCell id="g8SVWHZAsRiCq_bppXQF-143" value="Theo mã" style="ellipse;whiteSpace=wrap;html=1;" vertex="1" parent="1">
          <mxGeometry x="1770" y="840" width="120" height="80" as="geometry" />
        </mxCell>
        <mxCell id="g8SVWHZAsRiCq_bppXQF-144" value="" style="endArrow=open;endSize=12;dashed=1;html=1;rounded=0;exitX=1;exitY=0.5;exitDx=0;exitDy=0;entryX=0;entryY=0.5;entryDx=0;entryDy=0;" edge="1" parent="1" source="g8SVWHZAsRiCq_bppXQF-139" target="g8SVWHZAsRiCq_bppXQF-142">
          <mxGeometry width="160" relative="1" as="geometry">
            <mxPoint x="1420" y="790" as="sourcePoint" />
            <mxPoint x="1610" y="750" as="targetPoint" />
          </mxGeometry>
        </mxCell>
        <mxCell id="g8SVWHZAsRiCq_bppXQF-145" value="include" style="edgeLabel;html=1;align=center;verticalAlign=middle;resizable=0;points=[];" vertex="1" connectable="0" parent="g8SVWHZAsRiCq_bppXQF-144">
          <mxGeometry x="0.2375" y="1" relative="1" as="geometry">
            <mxPoint as="offset" />
          </mxGeometry>
        </mxCell>
        <mxCell id="g8SVWHZAsRiCq_bppXQF-146" value="" style="endArrow=open;endSize=12;dashed=1;html=1;rounded=0;exitX=1;exitY=0.5;exitDx=0;exitDy=0;entryX=0;entryY=0.5;entryDx=0;entryDy=0;" edge="1" parent="1" source="g8SVWHZAsRiCq_bppXQF-139" target="g8SVWHZAsRiCq_bppXQF-143">
          <mxGeometry width="160" relative="1" as="geometry">
            <mxPoint x="1730" y="840" as="sourcePoint" />
            <mxPoint x="1780" y="790" as="targetPoint" />
          </mxGeometry>
        </mxCell>
        <mxCell id="g8SVWHZAsRiCq_bppXQF-147" value="include" style="edgeLabel;html=1;align=center;verticalAlign=middle;resizable=0;points=[];" vertex="1" connectable="0" parent="g8SVWHZAsRiCq_bppXQF-146">
          <mxGeometry x="0.2375" y="1" relative="1" as="geometry">
            <mxPoint as="offset" />
          </mxGeometry>
        </mxCell>
        <mxCell id="g8SVWHZAsRiCq_bppXQF-148" value="Quản lý" style="shape=umlActor;verticalLabelPosition=bottom;verticalAlign=top;html=1;outlineConnect=0;points=[[0,1,0,0,0],[0.2,0.5,0,0,0],[0.25,0.1,0,0,0],[0.5,0,0,0,-7],[0.5,0.5,0,0,0],[0.5,1,0,0,25],[0.75,0.1,0,0,0],[0.8,0.5,0,0,0],[1,1,0,0,0]];" vertex="1" parent="1">
          <mxGeometry x="1680" y="1760" width="30" height="60" as="geometry" />
        </mxCell>
        <mxCell id="g8SVWHZAsRiCq_bppXQF-149" value="" style="endArrow=open;endSize=12;dashed=1;html=1;rounded=0;exitX=1;exitY=0.5;exitDx=0;exitDy=0;entryX=0;entryY=0.5;entryDx=0;entryDy=0;" edge="1" parent="1" source="g8SVWHZAsRiCq_bppXQF-154" target="g8SVWHZAsRiCq_bppXQF-153">
          <mxGeometry width="160" relative="1" as="geometry">
            <mxPoint x="1410" y="1780" as="sourcePoint" />
            <mxPoint x="1290.0000000000039" y="1780" as="targetPoint" />
          </mxGeometry>
        </mxCell>
        <mxCell id="g8SVWHZAsRiCq_bppXQF-150" value="extend" style="edgeLabel;html=1;align=center;verticalAlign=middle;resizable=0;points=[];" vertex="1" connectable="0" parent="g8SVWHZAsRiCq_bppXQF-149">
          <mxGeometry x="0.2375" y="1" relative="1" as="geometry">
            <mxPoint x="-15" y="1" as="offset" />
          </mxGeometry>
        </mxCell>
        <mxCell id="g8SVWHZAsRiCq_bppXQF-151" value="" style="endArrow=open;endSize=12;dashed=1;html=1;rounded=0;exitX=0;exitY=0.5;exitDx=0;exitDy=0;entryX=1;entryY=0.5;entryDx=0;entryDy=0;" edge="1" parent="1" source="g8SVWHZAsRiCq_bppXQF-154" target="g8SVWHZAsRiCq_bppXQF-155">
          <mxGeometry width="160" relative="1" as="geometry">
            <mxPoint x="1490" y="1780" as="sourcePoint" />
            <mxPoint x="1580" y="1780" as="targetPoint" />
          </mxGeometry>
        </mxCell>
        <mxCell id="g8SVWHZAsRiCq_bppXQF-152" value="include" style="edgeLabel;html=1;align=center;verticalAlign=middle;resizable=0;points=[];" vertex="1" connectable="0" parent="g8SVWHZAsRiCq_bppXQF-151">
          <mxGeometry x="0.2375" y="1" relative="1" as="geometry">
            <mxPoint x="13" y="-1" as="offset" />
          </mxGeometry>
        </mxCell>
        <mxCell id="g8SVWHZAsRiCq_bppXQF-153" value="Login" style="ellipse;whiteSpace=wrap;html=1;" vertex="1" parent="1">
          <mxGeometry x="1480" y="1750" width="120" height="80" as="geometry" />
        </mxCell>
        <mxCell id="g8SVWHZAsRiCq_bppXQF-154" value="Quên mật khẩu" style="ellipse;whiteSpace=wrap;html=1;" vertex="1" parent="1">
          <mxGeometry x="1270" y="1750" width="120" height="80" as="geometry" />
        </mxCell>
        <mxCell id="g8SVWHZAsRiCq_bppXQF-155" value="Gửi yêu cầu đặt lại mật khẩu" style="ellipse;whiteSpace=wrap;html=1;" vertex="1" parent="1">
          <mxGeometry x="1080" y="1750" width="120" height="80" as="geometry" />
        </mxCell>
        <mxCell id="g8SVWHZAsRiCq_bppXQF-163" value="" style="endArrow=none;html=1;rounded=0;exitX=1;exitY=0.5;exitDx=0;exitDy=0;entryX=0.2;entryY=0.5;entryDx=0;entryDy=0;entryPerimeter=0;" edge="1" parent="1" source="g8SVWHZAsRiCq_bppXQF-153" target="g8SVWHZAsRiCq_bppXQF-148">
          <mxGeometry width="50" height="50" relative="1" as="geometry">
            <mxPoint x="1580" y="1660" as="sourcePoint" />
            <mxPoint x="1640" y="1670" as="targetPoint" />
          </mxGeometry>
        </mxCell>
        <mxCell id="g8SVWHZAsRiCq_bppXQF-164" value="Quản lý hàng hóa" style="ellipse;whiteSpace=wrap;html=1;" vertex="1" parent="1">
          <mxGeometry x="1790" y="1750" width="120" height="80" as="geometry" />
        </mxCell>
        <mxCell id="g8SVWHZAsRiCq_bppXQF-165" value="Sửa thông tin hàng hóa" style="ellipse;whiteSpace=wrap;html=1;" vertex="1" parent="1">
          <mxGeometry x="1950" y="1660" width="120" height="80" as="geometry" />
        </mxCell>
        <mxCell id="g8SVWHZAsRiCq_bppXQF-166" value="Thêm hàng hóa" style="ellipse;whiteSpace=wrap;html=1;" vertex="1" parent="1">
          <mxGeometry x="1950" y="1840" width="120" height="80" as="geometry" />
        </mxCell>
        <mxCell id="g8SVWHZAsRiCq_bppXQF-167" value="Xóa hàng hóa" style="ellipse;whiteSpace=wrap;html=1;" vertex="1" parent="1">
          <mxGeometry x="2100" y="1710" width="120" height="80" as="geometry" />
        </mxCell>
        <mxCell id="g8SVWHZAsRiCq_bppXQF-168" value="" style="endArrow=open;endSize=12;dashed=1;html=1;rounded=0;exitX=1;exitY=0.5;exitDx=0;exitDy=0;entryX=0;entryY=0.5;entryDx=0;entryDy=0;" edge="1" parent="1" source="g8SVWHZAsRiCq_bppXQF-164" target="g8SVWHZAsRiCq_bppXQF-165">
          <mxGeometry width="160" relative="1" as="geometry">
            <mxPoint x="1920" y="1570" as="sourcePoint" />
            <mxPoint x="1960" y="1620" as="targetPoint" />
          </mxGeometry>
        </mxCell>
        <mxCell id="g8SVWHZAsRiCq_bppXQF-169" value="include" style="edgeLabel;html=1;align=center;verticalAlign=middle;resizable=0;points=[];" vertex="1" connectable="0" parent="g8SVWHZAsRiCq_bppXQF-168">
          <mxGeometry x="0.2375" y="1" relative="1" as="geometry">
            <mxPoint as="offset" />
          </mxGeometry>
        </mxCell>
        <mxCell id="g8SVWHZAsRiCq_bppXQF-170" value="" style="endArrow=open;endSize=12;dashed=1;html=1;rounded=0;exitX=1;exitY=0.5;exitDx=0;exitDy=0;entryX=0;entryY=0.5;entryDx=0;entryDy=0;" edge="1" parent="1" source="g8SVWHZAsRiCq_bppXQF-164" target="g8SVWHZAsRiCq_bppXQF-166">
          <mxGeometry width="160" relative="1" as="geometry">
            <mxPoint x="1920" y="1770" as="sourcePoint" />
            <mxPoint x="1960" y="1710" as="targetPoint" />
          </mxGeometry>
        </mxCell>
        <mxCell id="g8SVWHZAsRiCq_bppXQF-171" value="include" style="edgeLabel;html=1;align=center;verticalAlign=middle;resizable=0;points=[];" vertex="1" connectable="0" parent="g8SVWHZAsRiCq_bppXQF-170">
          <mxGeometry x="0.2375" y="1" relative="1" as="geometry">
            <mxPoint as="offset" />
          </mxGeometry>
        </mxCell>
        <mxCell id="g8SVWHZAsRiCq_bppXQF-172" value="" style="endArrow=open;endSize=12;dashed=1;html=1;rounded=0;exitX=1;exitY=0.5;exitDx=0;exitDy=0;entryX=0;entryY=0.5;entryDx=0;entryDy=0;" edge="1" parent="1" source="g8SVWHZAsRiCq_bppXQF-164" target="g8SVWHZAsRiCq_bppXQF-167">
          <mxGeometry width="160" relative="1" as="geometry">
            <mxPoint x="1920" y="1770" as="sourcePoint" />
            <mxPoint x="1960" y="1710" as="targetPoint" />
          </mxGeometry>
        </mxCell>
        <mxCell id="g8SVWHZAsRiCq_bppXQF-173" value="include" style="edgeLabel;html=1;align=center;verticalAlign=middle;resizable=0;points=[];" vertex="1" connectable="0" parent="g8SVWHZAsRiCq_bppXQF-172">
          <mxGeometry x="0.2375" y="1" relative="1" as="geometry">
            <mxPoint as="offset" />
          </mxGeometry>
        </mxCell>
        <mxCell id="g8SVWHZAsRiCq_bppXQF-174" value="Tìm kiếm hàng hóa" style="ellipse;whiteSpace=wrap;html=1;" vertex="1" parent="1">
          <mxGeometry x="2100" y="1800" width="120" height="80" as="geometry" />
        </mxCell>
        <mxCell id="g8SVWHZAsRiCq_bppXQF-175" value="" style="endArrow=open;endSize=12;dashed=1;html=1;rounded=0;exitX=1;exitY=0.5;exitDx=0;exitDy=0;entryX=0;entryY=0.5;entryDx=0;entryDy=0;" edge="1" parent="1" source="g8SVWHZAsRiCq_bppXQF-164" target="g8SVWHZAsRiCq_bppXQF-174">
          <mxGeometry width="160" relative="1" as="geometry">
            <mxPoint x="1920" y="1800" as="sourcePoint" />
            <mxPoint x="2110" y="1760" as="targetPoint" />
          </mxGeometry>
        </mxCell>
        <mxCell id="g8SVWHZAsRiCq_bppXQF-176" value="include" style="edgeLabel;html=1;align=center;verticalAlign=middle;resizable=0;points=[];" vertex="1" connectable="0" parent="g8SVWHZAsRiCq_bppXQF-175">
          <mxGeometry x="0.2375" y="1" relative="1" as="geometry">
            <mxPoint as="offset" />
          </mxGeometry>
        </mxCell>
        <mxCell id="g8SVWHZAsRiCq_bppXQF-177" value="Theo tên&amp;nbsp;" style="ellipse;whiteSpace=wrap;html=1;" vertex="1" parent="1">
          <mxGeometry x="2270" y="1750" width="120" height="80" as="geometry" />
        </mxCell>
        <mxCell id="g8SVWHZAsRiCq_bppXQF-178" value="Theo mã" style="ellipse;whiteSpace=wrap;html=1;" vertex="1" parent="1">
          <mxGeometry x="2270" y="1850" width="120" height="80" as="geometry" />
        </mxCell>
        <mxCell id="g8SVWHZAsRiCq_bppXQF-179" value="" style="endArrow=open;endSize=12;dashed=1;html=1;rounded=0;exitX=1;exitY=0.5;exitDx=0;exitDy=0;entryX=0;entryY=0.5;entryDx=0;entryDy=0;" edge="1" parent="1" source="g8SVWHZAsRiCq_bppXQF-174" target="g8SVWHZAsRiCq_bppXQF-177">
          <mxGeometry width="160" relative="1" as="geometry">
            <mxPoint x="1920" y="1800" as="sourcePoint" />
            <mxPoint x="2110" y="1760" as="targetPoint" />
          </mxGeometry>
        </mxCell>
        <mxCell id="g8SVWHZAsRiCq_bppXQF-180" value="include" style="edgeLabel;html=1;align=center;verticalAlign=middle;resizable=0;points=[];" vertex="1" connectable="0" parent="g8SVWHZAsRiCq_bppXQF-179">
          <mxGeometry x="0.2375" y="1" relative="1" as="geometry">
            <mxPoint as="offset" />
          </mxGeometry>
        </mxCell>
        <mxCell id="g8SVWHZAsRiCq_bppXQF-181" value="" style="endArrow=open;endSize=12;dashed=1;html=1;rounded=0;exitX=1;exitY=0.5;exitDx=0;exitDy=0;entryX=0;entryY=0.5;entryDx=0;entryDy=0;" edge="1" parent="1" source="g8SVWHZAsRiCq_bppXQF-174" target="g8SVWHZAsRiCq_bppXQF-178">
          <mxGeometry width="160" relative="1" as="geometry">
            <mxPoint x="2230" y="1850" as="sourcePoint" />
            <mxPoint x="2280" y="1800" as="targetPoint" />
          </mxGeometry>
        </mxCell>
        <mxCell id="g8SVWHZAsRiCq_bppXQF-182" value="include" style="edgeLabel;html=1;align=center;verticalAlign=middle;resizable=0;points=[];" vertex="1" connectable="0" parent="g8SVWHZAsRiCq_bppXQF-181">
          <mxGeometry x="0.2375" y="1" relative="1" as="geometry">
            <mxPoint as="offset" />
          </mxGeometry>
        </mxCell>
        <mxCell id="g8SVWHZAsRiCq_bppXQF-183" value="" style="endArrow=none;html=1;rounded=0;entryX=0;entryY=0.5;entryDx=0;entryDy=0;exitX=0.8;exitY=0.5;exitDx=0;exitDy=0;exitPerimeter=0;" edge="1" parent="1" source="g8SVWHZAsRiCq_bppXQF-148" target="g8SVWHZAsRiCq_bppXQF-164">
          <mxGeometry width="50" height="50" relative="1" as="geometry">
            <mxPoint x="1750" y="1770" as="sourcePoint" />
            <mxPoint x="1696" y="1800" as="targetPoint" />
          </mxGeometry>
        </mxCell>
        <mxCell id="g8SVWHZAsRiCq_bppXQF-184" value="Quản lý nhân viên" style="ellipse;whiteSpace=wrap;html=1;" vertex="1" parent="1">
          <mxGeometry x="1635" y="1940" width="120" height="80" as="geometry" />
        </mxCell>
        <mxCell id="g8SVWHZAsRiCq_bppXQF-185" value="Sửa thông tin nhân viên" style="ellipse;whiteSpace=wrap;html=1;" vertex="1" parent="1">
          <mxGeometry x="1450" y="1980" width="120" height="80" as="geometry" />
        </mxCell>
        <mxCell id="g8SVWHZAsRiCq_bppXQF-186" value="Thêm nhân viên" style="ellipse;whiteSpace=wrap;html=1;" vertex="1" parent="1">
          <mxGeometry x="1450" y="2080" width="120" height="80" as="geometry" />
        </mxCell>
        <mxCell id="g8SVWHZAsRiCq_bppXQF-187" value="Xóa nhân viên" style="ellipse;whiteSpace=wrap;html=1;" vertex="1" parent="1">
          <mxGeometry x="1770" y="2000" width="120" height="80" as="geometry" />
        </mxCell>
        <mxCell id="g8SVWHZAsRiCq_bppXQF-188" value="" style="endArrow=open;endSize=12;dashed=1;html=1;rounded=0;entryX=1;entryY=0.5;entryDx=0;entryDy=0;exitX=0.5;exitY=1;exitDx=0;exitDy=0;" edge="1" parent="1" source="g8SVWHZAsRiCq_bppXQF-184" target="g8SVWHZAsRiCq_bppXQF-185">
          <mxGeometry width="160" relative="1" as="geometry">
            <mxPoint x="1700" y="2040" as="sourcePoint" />
            <mxPoint x="2000" y="1880" as="targetPoint" />
          </mxGeometry>
        </mxCell>
        <mxCell id="g8SVWHZAsRiCq_bppXQF-189" value="include" style="edgeLabel;html=1;align=center;verticalAlign=middle;resizable=0;points=[];" vertex="1" connectable="0" parent="g8SVWHZAsRiCq_bppXQF-188">
          <mxGeometry x="0.2375" y="1" relative="1" as="geometry">
            <mxPoint as="offset" />
          </mxGeometry>
        </mxCell>
        <mxCell id="g8SVWHZAsRiCq_bppXQF-190" value="" style="endArrow=open;endSize=12;dashed=1;html=1;rounded=0;exitX=0.5;exitY=1;exitDx=0;exitDy=0;entryX=0.5;entryY=0;entryDx=0;entryDy=0;" edge="1" parent="1" source="g8SVWHZAsRiCq_bppXQF-184" target="g8SVWHZAsRiCq_bppXQF-186">
          <mxGeometry width="160" relative="1" as="geometry">
            <mxPoint x="1960" y="2030" as="sourcePoint" />
            <mxPoint x="2000" y="1970" as="targetPoint" />
          </mxGeometry>
        </mxCell>
        <mxCell id="g8SVWHZAsRiCq_bppXQF-191" value="include" style="edgeLabel;html=1;align=center;verticalAlign=middle;resizable=0;points=[];" vertex="1" connectable="0" parent="g8SVWHZAsRiCq_bppXQF-190">
          <mxGeometry x="0.2375" y="1" relative="1" as="geometry">
            <mxPoint as="offset" />
          </mxGeometry>
        </mxCell>
        <mxCell id="g8SVWHZAsRiCq_bppXQF-192" value="" style="endArrow=open;endSize=12;dashed=1;html=1;rounded=0;exitX=0.5;exitY=1;exitDx=0;exitDy=0;entryX=0;entryY=0.5;entryDx=0;entryDy=0;" edge="1" parent="1" source="g8SVWHZAsRiCq_bppXQF-184" target="g8SVWHZAsRiCq_bppXQF-187">
          <mxGeometry width="160" relative="1" as="geometry">
            <mxPoint x="1960" y="2030" as="sourcePoint" />
            <mxPoint x="2000" y="1970" as="targetPoint" />
          </mxGeometry>
        </mxCell>
        <mxCell id="g8SVWHZAsRiCq_bppXQF-193" value="include" style="edgeLabel;html=1;align=center;verticalAlign=middle;resizable=0;points=[];" vertex="1" connectable="0" parent="g8SVWHZAsRiCq_bppXQF-192">
          <mxGeometry x="0.2375" y="1" relative="1" as="geometry">
            <mxPoint as="offset" />
          </mxGeometry>
        </mxCell>
        <mxCell id="g8SVWHZAsRiCq_bppXQF-194" value="Tìm kiếm nhân viên" style="ellipse;whiteSpace=wrap;html=1;" vertex="1" parent="1">
          <mxGeometry x="1590" y="2090" width="120" height="80" as="geometry" />
        </mxCell>
        <mxCell id="g8SVWHZAsRiCq_bppXQF-195" value="" style="endArrow=open;endSize=12;dashed=1;html=1;rounded=0;exitX=0.478;exitY=0.998;exitDx=0;exitDy=0;entryX=0.5;entryY=0;entryDx=0;entryDy=0;exitPerimeter=0;" edge="1" parent="1" source="g8SVWHZAsRiCq_bppXQF-184" target="g8SVWHZAsRiCq_bppXQF-194">
          <mxGeometry width="160" relative="1" as="geometry">
            <mxPoint x="1960" y="2060" as="sourcePoint" />
            <mxPoint x="2150" y="2020" as="targetPoint" />
          </mxGeometry>
        </mxCell>
        <mxCell id="g8SVWHZAsRiCq_bppXQF-196" value="include" style="edgeLabel;html=1;align=center;verticalAlign=middle;resizable=0;points=[];" vertex="1" connectable="0" parent="g8SVWHZAsRiCq_bppXQF-195">
          <mxGeometry x="0.2375" y="1" relative="1" as="geometry">
            <mxPoint as="offset" />
          </mxGeometry>
        </mxCell>
        <mxCell id="g8SVWHZAsRiCq_bppXQF-197" value="Theo tên&amp;nbsp;" style="ellipse;whiteSpace=wrap;html=1;" vertex="1" parent="1">
          <mxGeometry x="1500" y="2200" width="120" height="80" as="geometry" />
        </mxCell>
        <mxCell id="g8SVWHZAsRiCq_bppXQF-198" value="Theo mã" style="ellipse;whiteSpace=wrap;html=1;" vertex="1" parent="1">
          <mxGeometry x="1650" y="2200" width="120" height="80" as="geometry" />
        </mxCell>
        <mxCell id="g8SVWHZAsRiCq_bppXQF-199" value="" style="endArrow=open;endSize=12;dashed=1;html=1;rounded=0;entryX=0.5;entryY=0;entryDx=0;entryDy=0;exitX=0.5;exitY=1;exitDx=0;exitDy=0;" edge="1" parent="1" source="g8SVWHZAsRiCq_bppXQF-194" target="g8SVWHZAsRiCq_bppXQF-197">
          <mxGeometry width="160" relative="1" as="geometry">
            <mxPoint x="1750" y="2170" as="sourcePoint" />
            <mxPoint x="2110" y="1980" as="targetPoint" />
          </mxGeometry>
        </mxCell>
        <mxCell id="g8SVWHZAsRiCq_bppXQF-200" value="include" style="edgeLabel;html=1;align=center;verticalAlign=middle;resizable=0;points=[];" vertex="1" connectable="0" parent="g8SVWHZAsRiCq_bppXQF-199">
          <mxGeometry x="0.2375" y="1" relative="1" as="geometry">
            <mxPoint as="offset" />
          </mxGeometry>
        </mxCell>
        <mxCell id="g8SVWHZAsRiCq_bppXQF-201" value="" style="endArrow=open;endSize=12;dashed=1;html=1;rounded=0;exitX=0.5;exitY=1;exitDx=0;exitDy=0;entryX=0.5;entryY=0;entryDx=0;entryDy=0;" edge="1" parent="1" source="g8SVWHZAsRiCq_bppXQF-194" target="g8SVWHZAsRiCq_bppXQF-198">
          <mxGeometry width="160" relative="1" as="geometry">
            <mxPoint x="2230" y="2070" as="sourcePoint" />
            <mxPoint x="2280" y="2020" as="targetPoint" />
          </mxGeometry>
        </mxCell>
        <mxCell id="g8SVWHZAsRiCq_bppXQF-202" value="include" style="edgeLabel;html=1;align=center;verticalAlign=middle;resizable=0;points=[];" vertex="1" connectable="0" parent="g8SVWHZAsRiCq_bppXQF-201">
          <mxGeometry x="0.2375" y="1" relative="1" as="geometry">
            <mxPoint as="offset" />
          </mxGeometry>
        </mxCell>
        <mxCell id="g8SVWHZAsRiCq_bppXQF-203" value="" style="endArrow=none;html=1;rounded=0;entryX=0.5;entryY=0;entryDx=0;entryDy=0;exitX=0.5;exitY=1;exitDx=0;exitDy=25;exitPerimeter=0;" edge="1" parent="1" source="g8SVWHZAsRiCq_bppXQF-148" target="g8SVWHZAsRiCq_bppXQF-184">
          <mxGeometry width="50" height="50" relative="1" as="geometry">
            <mxPoint x="1714" y="1800" as="sourcePoint" />
            <mxPoint x="1840" y="1800" as="targetPoint" />
          </mxGeometry>
        </mxCell>
        <mxCell id="g8SVWHZAsRiCq_bppXQF-205" value="Kiểm tra ngày công" style="ellipse;whiteSpace=wrap;html=1;" vertex="1" parent="1">
          <mxGeometry x="1740" y="2090" width="120" height="80" as="geometry" />
        </mxCell>
        <mxCell id="g8SVWHZAsRiCq_bppXQF-206" value="" style="endArrow=open;endSize=12;dashed=1;html=1;rounded=0;entryX=0;entryY=0;entryDx=0;entryDy=0;exitX=0.5;exitY=1;exitDx=0;exitDy=0;" edge="1" parent="1" source="g8SVWHZAsRiCq_bppXQF-184" target="g8SVWHZAsRiCq_bppXQF-205">
          <mxGeometry width="160" relative="1" as="geometry">
            <mxPoint x="1690" y="2020" as="sourcePoint" />
            <mxPoint x="1740" y="2090" as="targetPoint" />
          </mxGeometry>
        </mxCell>
        <mxCell id="g8SVWHZAsRiCq_bppXQF-207" value="include" style="edgeLabel;html=1;align=center;verticalAlign=middle;resizable=0;points=[];" vertex="1" connectable="0" parent="g8SVWHZAsRiCq_bppXQF-206">
          <mxGeometry x="0.2375" y="1" relative="1" as="geometry">
            <mxPoint as="offset" />
          </mxGeometry>
        </mxCell>
        <mxCell id="g8SVWHZAsRiCq_bppXQF-208" value="Cập nhật ngày công" style="ellipse;whiteSpace=wrap;html=1;" vertex="1" parent="1">
          <mxGeometry x="1800" y="2210" width="120" height="80" as="geometry" />
        </mxCell>
        <mxCell id="g8SVWHZAsRiCq_bppXQF-209" value="" style="endArrow=open;endSize=12;dashed=1;html=1;rounded=0;entryX=1;entryY=1;entryDx=0;entryDy=0;exitX=0.5;exitY=0;exitDx=0;exitDy=0;" edge="1" parent="1" source="g8SVWHZAsRiCq_bppXQF-208" target="g8SVWHZAsRiCq_bppXQF-205">
          <mxGeometry width="160" relative="1" as="geometry">
            <mxPoint x="1820" y="2340" as="sourcePoint" />
            <mxPoint x="1910" y="2340" as="targetPoint" />
          </mxGeometry>
        </mxCell>
        <mxCell id="g8SVWHZAsRiCq_bppXQF-210" value="extend" style="edgeLabel;html=1;align=center;verticalAlign=middle;resizable=0;points=[];" vertex="1" connectable="0" parent="g8SVWHZAsRiCq_bppXQF-209">
          <mxGeometry x="0.2375" y="1" relative="1" as="geometry">
            <mxPoint x="-15" y="1" as="offset" />
          </mxGeometry>
        </mxCell>
        <mxCell id="g8SVWHZAsRiCq_bppXQF-211" value="Quản lý nhà cung cấp" style="ellipse;whiteSpace=wrap;html=1;" vertex="1" parent="1">
          <mxGeometry x="1635" y="1600" width="120" height="80" as="geometry" />
        </mxCell>
        <mxCell id="g8SVWHZAsRiCq_bppXQF-212" value="" style="endArrow=none;html=1;rounded=0;entryX=0.5;entryY=0;entryDx=0;entryDy=-7;exitX=0.5;exitY=1;exitDx=0;exitDy=0;entryPerimeter=0;" edge="1" parent="1" source="g8SVWHZAsRiCq_bppXQF-211" target="g8SVWHZAsRiCq_bppXQF-148">
          <mxGeometry width="50" height="50" relative="1" as="geometry">
            <mxPoint x="1714" y="1800" as="sourcePoint" />
            <mxPoint x="1840" y="1800" as="targetPoint" />
          </mxGeometry>
        </mxCell>
        <mxCell id="g8SVWHZAsRiCq_bppXQF-213" value="Thêm nhà cung cấp" style="ellipse;whiteSpace=wrap;html=1;" vertex="1" parent="1">
          <mxGeometry x="1790" y="1480" width="120" height="80" as="geometry" />
        </mxCell>
        <mxCell id="g8SVWHZAsRiCq_bppXQF-214" value="Xóa nhà cung cấp" style="ellipse;whiteSpace=wrap;html=1;" vertex="1" parent="1">
          <mxGeometry x="1560" y="1430" width="120" height="80" as="geometry" />
        </mxCell>
        <mxCell id="g8SVWHZAsRiCq_bppXQF-215" value="Sửa thông tin nhà cung cấp" style="ellipse;whiteSpace=wrap;html=1;" vertex="1" parent="1">
          <mxGeometry x="1690" y="1430" width="120" height="80" as="geometry" />
        </mxCell>
        <mxCell id="g8SVWHZAsRiCq_bppXQF-216" value="Tìm kiếm nhà cung cấp" style="ellipse;whiteSpace=wrap;html=1;" vertex="1" parent="1">
          <mxGeometry x="1450" y="1490" width="120" height="80" as="geometry" />
        </mxCell>
        <mxCell id="g8SVWHZAsRiCq_bppXQF-217" value="Theo tên&amp;nbsp;" style="ellipse;whiteSpace=wrap;html=1;" vertex="1" parent="1">
          <mxGeometry x="1480" y="1330" width="120" height="80" as="geometry" />
        </mxCell>
        <mxCell id="g8SVWHZAsRiCq_bppXQF-218" value="Theo mã" style="ellipse;whiteSpace=wrap;html=1;" vertex="1" parent="1">
          <mxGeometry x="1350" y="1380" width="120" height="80" as="geometry" />
        </mxCell>
        <mxCell id="g8SVWHZAsRiCq_bppXQF-219" value="" style="endArrow=open;endSize=12;dashed=1;html=1;rounded=0;exitX=0.5;exitY=0;exitDx=0;exitDy=0;entryX=0;entryY=1;entryDx=0;entryDy=0;" edge="1" parent="1" source="g8SVWHZAsRiCq_bppXQF-211" target="g8SVWHZAsRiCq_bppXQF-213">
          <mxGeometry width="160" relative="1" as="geometry">
            <mxPoint x="1570" y="1710" as="sourcePoint" />
            <mxPoint x="1610" y="1620" as="targetPoint" />
          </mxGeometry>
        </mxCell>
        <mxCell id="g8SVWHZAsRiCq_bppXQF-220" value="include" style="edgeLabel;html=1;align=center;verticalAlign=middle;resizable=0;points=[];" vertex="1" connectable="0" parent="g8SVWHZAsRiCq_bppXQF-219">
          <mxGeometry x="0.2375" y="1" relative="1" as="geometry">
            <mxPoint as="offset" />
          </mxGeometry>
        </mxCell>
        <mxCell id="g8SVWHZAsRiCq_bppXQF-221" value="" style="endArrow=open;endSize=12;dashed=1;html=1;rounded=0;exitX=0.5;exitY=0;exitDx=0;exitDy=0;entryX=0.5;entryY=1;entryDx=0;entryDy=0;" edge="1" parent="1" source="g8SVWHZAsRiCq_bppXQF-211" target="g8SVWHZAsRiCq_bppXQF-214">
          <mxGeometry width="160" relative="1" as="geometry">
            <mxPoint x="1645" y="1650" as="sourcePoint" />
            <mxPoint x="1560" y="1610" as="targetPoint" />
          </mxGeometry>
        </mxCell>
        <mxCell id="g8SVWHZAsRiCq_bppXQF-222" value="include" style="edgeLabel;html=1;align=center;verticalAlign=middle;resizable=0;points=[];" vertex="1" connectable="0" parent="g8SVWHZAsRiCq_bppXQF-221">
          <mxGeometry x="0.2375" y="1" relative="1" as="geometry">
            <mxPoint as="offset" />
          </mxGeometry>
        </mxCell>
        <mxCell id="g8SVWHZAsRiCq_bppXQF-223" value="" style="endArrow=open;endSize=12;dashed=1;html=1;rounded=0;exitX=0.5;exitY=0;exitDx=0;exitDy=0;entryX=0.5;entryY=1;entryDx=0;entryDy=0;" edge="1" parent="1" source="g8SVWHZAsRiCq_bppXQF-211" target="g8SVWHZAsRiCq_bppXQF-215">
          <mxGeometry width="160" relative="1" as="geometry">
            <mxPoint x="1705" y="1610" as="sourcePoint" />
            <mxPoint x="1600" y="1560" as="targetPoint" />
          </mxGeometry>
        </mxCell>
        <mxCell id="g8SVWHZAsRiCq_bppXQF-224" value="include" style="edgeLabel;html=1;align=center;verticalAlign=middle;resizable=0;points=[];" vertex="1" connectable="0" parent="g8SVWHZAsRiCq_bppXQF-223">
          <mxGeometry x="0.2375" y="1" relative="1" as="geometry">
            <mxPoint as="offset" />
          </mxGeometry>
        </mxCell>
        <mxCell id="g8SVWHZAsRiCq_bppXQF-225" value="" style="endArrow=open;endSize=12;dashed=1;html=1;rounded=0;exitX=0.5;exitY=0;exitDx=0;exitDy=0;entryX=0.5;entryY=1;entryDx=0;entryDy=0;" edge="1" parent="1" source="g8SVWHZAsRiCq_bppXQF-211" target="g8SVWHZAsRiCq_bppXQF-216">
          <mxGeometry width="160" relative="1" as="geometry">
            <mxPoint x="1705" y="1610" as="sourcePoint" />
            <mxPoint x="1760" y="1560" as="targetPoint" />
          </mxGeometry>
        </mxCell>
        <mxCell id="g8SVWHZAsRiCq_bppXQF-226" value="include" style="edgeLabel;html=1;align=center;verticalAlign=middle;resizable=0;points=[];" vertex="1" connectable="0" parent="g8SVWHZAsRiCq_bppXQF-225">
          <mxGeometry x="0.2375" y="1" relative="1" as="geometry">
            <mxPoint as="offset" />
          </mxGeometry>
        </mxCell>
        <mxCell id="g8SVWHZAsRiCq_bppXQF-227" value="" style="endArrow=open;endSize=12;dashed=1;html=1;rounded=0;exitX=0.5;exitY=0;exitDx=0;exitDy=0;entryX=0.5;entryY=1;entryDx=0;entryDy=0;" edge="1" parent="1" source="g8SVWHZAsRiCq_bppXQF-216" target="g8SVWHZAsRiCq_bppXQF-217">
          <mxGeometry width="160" relative="1" as="geometry">
            <mxPoint x="1250" y="1490" as="sourcePoint" />
            <mxPoint x="1345" y="1460" as="targetPoint" />
          </mxGeometry>
        </mxCell>
        <mxCell id="g8SVWHZAsRiCq_bppXQF-228" value="include" style="edgeLabel;html=1;align=center;verticalAlign=middle;resizable=0;points=[];" vertex="1" connectable="0" parent="g8SVWHZAsRiCq_bppXQF-227">
          <mxGeometry x="0.2375" y="1" relative="1" as="geometry">
            <mxPoint as="offset" />
          </mxGeometry>
        </mxCell>
        <mxCell id="g8SVWHZAsRiCq_bppXQF-229" value="" style="endArrow=open;endSize=12;dashed=1;html=1;rounded=0;exitX=0.5;exitY=0;exitDx=0;exitDy=0;entryX=1;entryY=1;entryDx=0;entryDy=0;" edge="1" parent="1" source="g8SVWHZAsRiCq_bppXQF-216" target="g8SVWHZAsRiCq_bppXQF-218">
          <mxGeometry width="160" relative="1" as="geometry">
            <mxPoint x="1465" y="1460" as="sourcePoint" />
            <mxPoint x="1525" y="1390" as="targetPoint" />
          </mxGeometry>
        </mxCell>
        <mxCell id="g8SVWHZAsRiCq_bppXQF-230" value="include" style="edgeLabel;html=1;align=center;verticalAlign=middle;resizable=0;points=[];" vertex="1" connectable="0" parent="g8SVWHZAsRiCq_bppXQF-229">
          <mxGeometry x="0.2375" y="1" relative="1" as="geometry">
            <mxPoint as="offset" />
          </mxGeometry>
        </mxCell>
        <mxCell id="g8SVWHZAsRiCq_bppXQF-231" value="Xác nhận đơn hàng" style="ellipse;whiteSpace=wrap;html=1;" vertex="1" parent="1">
          <mxGeometry x="1240" y="1560" width="120" height="80" as="geometry" />
        </mxCell>
        <mxCell id="g8SVWHZAsRiCq_bppXQF-232" value="Quản lý nhập hàng" style="ellipse;whiteSpace=wrap;html=1;" vertex="1" parent="1">
          <mxGeometry x="1450" y="1620" width="120" height="80" as="geometry" />
        </mxCell>
        <mxCell id="g8SVWHZAsRiCq_bppXQF-233" value="" style="endArrow=none;html=1;rounded=0;exitX=1;exitY=1;exitDx=0;exitDy=0;entryX=0.5;entryY=0;entryDx=0;entryDy=-7;entryPerimeter=0;" edge="1" parent="1" source="g8SVWHZAsRiCq_bppXQF-232" target="g8SVWHZAsRiCq_bppXQF-148">
          <mxGeometry width="50" height="50" relative="1" as="geometry">
            <mxPoint x="1705" y="1690" as="sourcePoint" />
            <mxPoint x="1690" y="1750" as="targetPoint" />
          </mxGeometry>
        </mxCell>
        <mxCell id="g8SVWHZAsRiCq_bppXQF-235" value="Sửa đơn hàng" style="ellipse;whiteSpace=wrap;html=1;" vertex="1" parent="1">
          <mxGeometry x="1240" y="1650" width="120" height="80" as="geometry" />
        </mxCell>
        <mxCell id="g8SVWHZAsRiCq_bppXQF-237" value="" style="endArrow=open;endSize=12;dashed=1;html=1;rounded=0;exitX=0;exitY=0.5;exitDx=0;exitDy=0;entryX=1;entryY=0.5;entryDx=0;entryDy=0;" edge="1" parent="1" source="g8SVWHZAsRiCq_bppXQF-232" target="g8SVWHZAsRiCq_bppXQF-231">
          <mxGeometry width="160" relative="1" as="geometry">
            <mxPoint x="1705" y="1610" as="sourcePoint" />
            <mxPoint x="1610" y="1550" as="targetPoint" />
          </mxGeometry>
        </mxCell>
        <mxCell id="g8SVWHZAsRiCq_bppXQF-238" value="include" style="edgeLabel;html=1;align=center;verticalAlign=middle;resizable=0;points=[];" vertex="1" connectable="0" parent="g8SVWHZAsRiCq_bppXQF-237">
          <mxGeometry x="0.2375" y="1" relative="1" as="geometry">
            <mxPoint as="offset" />
          </mxGeometry>
        </mxCell>
        <mxCell id="g8SVWHZAsRiCq_bppXQF-239" value="" style="endArrow=open;endSize=12;dashed=1;html=1;rounded=0;exitX=0;exitY=0.5;exitDx=0;exitDy=0;entryX=1;entryY=0.5;entryDx=0;entryDy=0;" edge="1" parent="1" source="g8SVWHZAsRiCq_bppXQF-232" target="g8SVWHZAsRiCq_bppXQF-235">
          <mxGeometry width="160" relative="1" as="geometry">
            <mxPoint x="1460" y="1670" as="sourcePoint" />
            <mxPoint x="1380" y="1590" as="targetPoint" />
          </mxGeometry>
        </mxCell>
        <mxCell id="g8SVWHZAsRiCq_bppXQF-240" value="include" style="edgeLabel;html=1;align=center;verticalAlign=middle;resizable=0;points=[];" vertex="1" connectable="0" parent="g8SVWHZAsRiCq_bppXQF-239">
          <mxGeometry x="0.2375" y="1" relative="1" as="geometry">
            <mxPoint as="offset" />
          </mxGeometry>
        </mxCell>
        <mxCell id="g8SVWHZAsRiCq_bppXQF-241" value="Thống kê&amp;nbsp;" style="ellipse;whiteSpace=wrap;html=1;" vertex="1" parent="1">
          <mxGeometry x="1400" y="1860" width="120" height="80" as="geometry" />
        </mxCell>
        <mxCell id="g8SVWHZAsRiCq_bppXQF-242" value="Thống kê doanh thu" style="ellipse;whiteSpace=wrap;html=1;" vertex="1" parent="1">
          <mxGeometry x="1170" y="1870" width="120" height="80" as="geometry" />
        </mxCell>
        <mxCell id="g8SVWHZAsRiCq_bppXQF-243" value="Thống kê hàng hóa" style="ellipse;whiteSpace=wrap;html=1;" vertex="1" parent="1">
          <mxGeometry x="1270" y="1960" width="120" height="80" as="geometry" />
        </mxCell>
        <mxCell id="g8SVWHZAsRiCq_bppXQF-246" value="" style="endArrow=open;endSize=12;dashed=1;html=1;rounded=0;entryX=1;entryY=0.5;entryDx=0;entryDy=0;exitX=0;exitY=0.5;exitDx=0;exitDy=0;" edge="1" parent="1" source="g8SVWHZAsRiCq_bppXQF-241" target="g8SVWHZAsRiCq_bppXQF-242">
          <mxGeometry width="160" relative="1" as="geometry">
            <mxPoint x="1410" y="1920" as="sourcePoint" />
            <mxPoint x="1285" y="1920" as="targetPoint" />
          </mxGeometry>
        </mxCell>
        <mxCell id="g8SVWHZAsRiCq_bppXQF-247" value="include" style="edgeLabel;html=1;align=center;verticalAlign=middle;resizable=0;points=[];" vertex="1" connectable="0" parent="g8SVWHZAsRiCq_bppXQF-246">
          <mxGeometry x="0.2375" y="1" relative="1" as="geometry">
            <mxPoint as="offset" />
          </mxGeometry>
        </mxCell>
        <mxCell id="g8SVWHZAsRiCq_bppXQF-248" value="" style="endArrow=open;endSize=12;dashed=1;html=1;rounded=0;entryX=0.5;entryY=0;entryDx=0;entryDy=0;exitX=0;exitY=0.5;exitDx=0;exitDy=0;" edge="1" parent="1" source="g8SVWHZAsRiCq_bppXQF-241" target="g8SVWHZAsRiCq_bppXQF-243">
          <mxGeometry width="160" relative="1" as="geometry">
            <mxPoint x="1400" y="1900" as="sourcePoint" />
            <mxPoint x="1300" y="1920" as="targetPoint" />
          </mxGeometry>
        </mxCell>
        <mxCell id="g8SVWHZAsRiCq_bppXQF-249" value="include" style="edgeLabel;html=1;align=center;verticalAlign=middle;resizable=0;points=[];" vertex="1" connectable="0" parent="g8SVWHZAsRiCq_bppXQF-248">
          <mxGeometry x="0.2375" y="1" relative="1" as="geometry">
            <mxPoint as="offset" />
          </mxGeometry>
        </mxCell>
        <mxCell id="g8SVWHZAsRiCq_bppXQF-250" value="" style="endArrow=none;html=1;rounded=0;exitX=1;exitY=0.5;exitDx=0;exitDy=0;entryX=0.5;entryY=1;entryDx=0;entryDy=25;entryPerimeter=0;" edge="1" parent="1" source="g8SVWHZAsRiCq_bppXQF-241" target="g8SVWHZAsRiCq_bppXQF-148">
          <mxGeometry width="50" height="50" relative="1" as="geometry">
            <mxPoint x="1705" y="1855" as="sourcePoint" />
            <mxPoint x="1670" y="1870" as="targetPoint" />
          </mxGeometry>
        </mxCell>
        <mxCell id="g8SVWHZAsRiCq_bppXQF-252" value="Quản lý khách hàng" style="ellipse;whiteSpace=wrap;html=1;" vertex="1" parent="1">
          <mxGeometry x="1890" y="1930" width="120" height="80" as="geometry" />
        </mxCell>
        <mxCell id="g8SVWHZAsRiCq_bppXQF-253" value="" style="endArrow=none;html=1;rounded=0;entryX=0;entryY=0;entryDx=0;entryDy=0;exitX=0.5;exitY=1;exitDx=0;exitDy=25;exitPerimeter=0;" edge="1" parent="1" source="g8SVWHZAsRiCq_bppXQF-148" target="g8SVWHZAsRiCq_bppXQF-252">
          <mxGeometry width="50" height="50" relative="1" as="geometry">
            <mxPoint x="1705" y="1855" as="sourcePoint" />
            <mxPoint x="1705" y="1950" as="targetPoint" />
          </mxGeometry>
        </mxCell>
        <mxCell id="g8SVWHZAsRiCq_bppXQF-254" value="Xem chi tiết khách hàng" style="ellipse;whiteSpace=wrap;html=1;" vertex="1" parent="1">
          <mxGeometry x="2080" y="2000" width="120" height="80" as="geometry" />
        </mxCell>
        <mxCell id="g8SVWHZAsRiCq_bppXQF-255" value="Xem danh sách khách hàng" style="ellipse;whiteSpace=wrap;html=1;" vertex="1" parent="1">
          <mxGeometry x="1970" y="2090" width="120" height="80" as="geometry" />
        </mxCell>
        <mxCell id="g8SVWHZAsRiCq_bppXQF-256" value="" style="endArrow=open;endSize=12;dashed=1;html=1;rounded=0;exitX=0.5;exitY=1;exitDx=0;exitDy=0;entryX=0;entryY=0.5;entryDx=0;entryDy=0;" edge="1" parent="1" source="g8SVWHZAsRiCq_bppXQF-252" target="g8SVWHZAsRiCq_bppXQF-254">
          <mxGeometry width="160" relative="1" as="geometry">
            <mxPoint x="1920" y="1800" as="sourcePoint" />
            <mxPoint x="1960" y="1890" as="targetPoint" />
          </mxGeometry>
        </mxCell>
        <mxCell id="g8SVWHZAsRiCq_bppXQF-257" value="include" style="edgeLabel;html=1;align=center;verticalAlign=middle;resizable=0;points=[];" vertex="1" connectable="0" parent="g8SVWHZAsRiCq_bppXQF-256">
          <mxGeometry x="0.2375" y="1" relative="1" as="geometry">
            <mxPoint as="offset" />
          </mxGeometry>
        </mxCell>
        <mxCell id="g8SVWHZAsRiCq_bppXQF-258" value="" style="endArrow=open;endSize=12;dashed=1;html=1;rounded=0;exitX=0.5;exitY=1;exitDx=0;exitDy=0;entryX=0;entryY=0;entryDx=0;entryDy=0;" edge="1" parent="1" source="g8SVWHZAsRiCq_bppXQF-252" target="g8SVWHZAsRiCq_bppXQF-255">
          <mxGeometry width="160" relative="1" as="geometry">
            <mxPoint x="1920" y="1800" as="sourcePoint" />
            <mxPoint x="1960" y="1890" as="targetPoint" />
          </mxGeometry>
        </mxCell>
        <mxCell id="g8SVWHZAsRiCq_bppXQF-259" value="include" style="edgeLabel;html=1;align=center;verticalAlign=middle;resizable=0;points=[];" vertex="1" connectable="0" parent="g8SVWHZAsRiCq_bppXQF-258">
          <mxGeometry x="0.2375" y="1" relative="1" as="geometry">
            <mxPoint as="offset" />
          </mxGeometry>
        </mxCell>
        <mxCell id="g8SVWHZAsRiCq_bppXQF-261" value="Quản lý bán hàng" style="ellipse;whiteSpace=wrap;html=1;" vertex="1" parent="1">
          <mxGeometry x="1800" y="1620" width="120" height="80" as="geometry" />
        </mxCell>
        <mxCell id="g8SVWHZAsRiCq_bppXQF-262" value="" style="endArrow=none;html=1;rounded=0;exitX=0;exitY=1;exitDx=0;exitDy=0;entryX=0.5;entryY=0;entryDx=0;entryDy=-7;entryPerimeter=0;" edge="1" parent="1" source="g8SVWHZAsRiCq_bppXQF-261" target="g8SVWHZAsRiCq_bppXQF-148">
          <mxGeometry width="50" height="50" relative="1" as="geometry">
            <mxPoint x="1705" y="1690" as="sourcePoint" />
            <mxPoint x="1760" y="1700" as="targetPoint" />
          </mxGeometry>
        </mxCell>
        <mxCell id="g8SVWHZAsRiCq_bppXQF-263" value="Xem chi tiết hóa đơn" style="ellipse;whiteSpace=wrap;html=1;" vertex="1" parent="1">
          <mxGeometry x="1950" y="1460" width="120" height="80" as="geometry" />
        </mxCell>
        <mxCell id="g8SVWHZAsRiCq_bppXQF-264" value="Xem danh sách hóa đơn" style="ellipse;whiteSpace=wrap;html=1;" vertex="1" parent="1">
          <mxGeometry x="2040" y="1540" width="120" height="80" as="geometry" />
        </mxCell>
        <mxCell id="g8SVWHZAsRiCq_bppXQF-265" value="" style="endArrow=open;endSize=12;dashed=1;html=1;rounded=0;exitX=1;exitY=0;exitDx=0;exitDy=0;entryX=0;entryY=1;entryDx=0;entryDy=0;" edge="1" parent="1" source="g8SVWHZAsRiCq_bppXQF-261" target="g8SVWHZAsRiCq_bppXQF-263">
          <mxGeometry width="160" relative="1" as="geometry">
            <mxPoint x="1705" y="1610" as="sourcePoint" />
            <mxPoint x="1818" y="1558" as="targetPoint" />
          </mxGeometry>
        </mxCell>
        <mxCell id="g8SVWHZAsRiCq_bppXQF-266" value="include" style="edgeLabel;html=1;align=center;verticalAlign=middle;resizable=0;points=[];" vertex="1" connectable="0" parent="g8SVWHZAsRiCq_bppXQF-265">
          <mxGeometry x="0.2375" y="1" relative="1" as="geometry">
            <mxPoint as="offset" />
          </mxGeometry>
        </mxCell>
        <mxCell id="g8SVWHZAsRiCq_bppXQF-267" value="" style="endArrow=open;endSize=12;dashed=1;html=1;rounded=0;exitX=1;exitY=0;exitDx=0;exitDy=0;entryX=0.014;entryY=0.554;entryDx=0;entryDy=0;entryPerimeter=0;" edge="1" parent="1" source="g8SVWHZAsRiCq_bppXQF-261" target="g8SVWHZAsRiCq_bppXQF-264">
          <mxGeometry width="160" relative="1" as="geometry">
            <mxPoint x="1912" y="1642" as="sourcePoint" />
            <mxPoint x="1978" y="1538" as="targetPoint" />
          </mxGeometry>
        </mxCell>
        <mxCell id="g8SVWHZAsRiCq_bppXQF-268" value="include" style="edgeLabel;html=1;align=center;verticalAlign=middle;resizable=0;points=[];" vertex="1" connectable="0" parent="g8SVWHZAsRiCq_bppXQF-267">
          <mxGeometry x="0.2375" y="1" relative="1" as="geometry">
            <mxPoint as="offset" />
          </mxGeometry>
        </mxCell>
        <mxCell id="g8SVWHZAsRiCq_bppXQF-270" value="&lt;span style=&quot;white-space: pre;&quot;&gt; &lt;/span&gt;Admin&lt;br&gt;" style="shape=umlActor;verticalLabelPosition=bottom;verticalAlign=top;html=1;outlineConnect=0;" vertex="1" parent="1">
          <mxGeometry x="314" y="-338" width="30" height="60" as="geometry" />
        </mxCell>
        <mxCell id="g8SVWHZAsRiCq_bppXQF-271" value="Quản lý người dùng" style="ellipse;whiteSpace=wrap;html=1;" vertex="1" parent="1">
          <mxGeometry x="450" y="-348" width="120" height="80" as="geometry" />
        </mxCell>
        <mxCell id="g8SVWHZAsRiCq_bppXQF-272" value="Liệt kê danh sách người dùng" style="ellipse;whiteSpace=wrap;html=1;" vertex="1" parent="1">
          <mxGeometry x="520" y="-510" width="100" height="70" as="geometry" />
        </mxCell>
        <mxCell id="g8SVWHZAsRiCq_bppXQF-273" value="Thêm người dùng" style="ellipse;whiteSpace=wrap;html=1;" vertex="1" parent="1">
          <mxGeometry x="650" y="-498" width="100" height="60" as="geometry" />
        </mxCell>
        <mxCell id="g8SVWHZAsRiCq_bppXQF-274" value="Cập nhật thông tin người dùng" style="ellipse;whiteSpace=wrap;html=1;" vertex="1" parent="1">
          <mxGeometry x="620" y="-240" width="100" height="70" as="geometry" />
        </mxCell>
        <mxCell id="g8SVWHZAsRiCq_bppXQF-275" value="Xóa người dùng" style="ellipse;whiteSpace=wrap;html=1;" vertex="1" parent="1">
          <mxGeometry x="650" y="-408" width="100" height="60" as="geometry" />
        </mxCell>
        <mxCell id="g8SVWHZAsRiCq_bppXQF-276" value="Tìm kiếm người dùng" style="ellipse;whiteSpace=wrap;html=1;" vertex="1" parent="1">
          <mxGeometry x="650" y="-328" width="100" height="60" as="geometry" />
        </mxCell>
        <mxCell id="g8SVWHZAsRiCq_bppXQF-277" value="Login" style="ellipse;whiteSpace=wrap;html=1;" vertex="1" parent="1">
          <mxGeometry x="269" y="-208" width="120" height="80" as="geometry" />
        </mxCell>
        <mxCell id="g8SVWHZAsRiCq_bppXQF-278" value="Phân quyền" style="ellipse;whiteSpace=wrap;html=1;" vertex="1" parent="1">
          <mxGeometry x="269" y="-468" width="120" height="80" as="geometry" />
        </mxCell>
        <mxCell id="g8SVWHZAsRiCq_bppXQF-279" value="Cài đặt trạng thái" style="ellipse;whiteSpace=wrap;html=1;" vertex="1" parent="1">
          <mxGeometry x="630" y="-128" width="100" height="70" as="geometry" />
        </mxCell>
        <mxCell id="g8SVWHZAsRiCq_bppXQF-280" value="Khóa tài khoản" style="ellipse;whiteSpace=wrap;html=1;" vertex="1" parent="1">
          <mxGeometry x="104" y="-558" width="104" height="60" as="geometry" />
        </mxCell>
        <mxCell id="g8SVWHZAsRiCq_bppXQF-281" value="Khôi phục tài khoản" style="ellipse;whiteSpace=wrap;html=1;" vertex="1" parent="1">
          <mxGeometry x="104" y="-468" width="104" height="60" as="geometry" />
        </mxCell>
        <mxCell id="g8SVWHZAsRiCq_bppXQF-282" value="Cập nhật chức năng" style="ellipse;whiteSpace=wrap;html=1;" vertex="1" parent="1">
          <mxGeometry x="440" y="-208" width="120" height="80" as="geometry" />
        </mxCell>
        <mxCell id="g8SVWHZAsRiCq_bppXQF-283" value="Thêm chức năng" style="ellipse;whiteSpace=wrap;html=1;" vertex="1" parent="1">
          <mxGeometry x="580" y="-53" width="100" height="70" as="geometry" />
        </mxCell>
        <mxCell id="g8SVWHZAsRiCq_bppXQF-284" value="Xóa chức năng" style="ellipse;whiteSpace=wrap;html=1;" vertex="1" parent="1">
          <mxGeometry x="455" y="-48" width="90" height="60" as="geometry" />
        </mxCell>
        <mxCell id="g8SVWHZAsRiCq_bppXQF-285" value="" style="endArrow=none;html=1;rounded=0;exitX=0.5;exitY=0;exitDx=0;exitDy=0;" edge="1" parent="1" source="g8SVWHZAsRiCq_bppXQF-277">
          <mxGeometry width="50" height="50" relative="1" as="geometry">
            <mxPoint x="333" y="-203" as="sourcePoint" />
            <mxPoint x="329" y="-248" as="targetPoint" />
          </mxGeometry>
        </mxCell>
        <mxCell id="g8SVWHZAsRiCq_bppXQF-286" value="" style="endArrow=none;html=1;rounded=0;exitX=0;exitY=0;exitDx=0;exitDy=0;" edge="1" parent="1" source="g8SVWHZAsRiCq_bppXQF-282">
          <mxGeometry width="50" height="50" relative="1" as="geometry">
            <mxPoint x="664" y="-298" as="sourcePoint" />
            <mxPoint x="364" y="-288" as="targetPoint" />
          </mxGeometry>
        </mxCell>
        <mxCell id="g8SVWHZAsRiCq_bppXQF-287" value="" style="endArrow=none;html=1;rounded=0;exitX=0.5;exitY=1;exitDx=0;exitDy=0;" edge="1" parent="1" source="g8SVWHZAsRiCq_bppXQF-278">
          <mxGeometry width="50" height="50" relative="1" as="geometry">
            <mxPoint x="664" y="-138" as="sourcePoint" />
            <mxPoint x="329" y="-348" as="targetPoint" />
          </mxGeometry>
        </mxCell>
        <mxCell id="g8SVWHZAsRiCq_bppXQF-288" value="" style="endArrow=none;html=1;rounded=0;entryX=0;entryY=0.5;entryDx=0;entryDy=0;" edge="1" parent="1" target="g8SVWHZAsRiCq_bppXQF-271">
          <mxGeometry width="50" height="50" relative="1" as="geometry">
            <mxPoint x="364" y="-308" as="sourcePoint" />
            <mxPoint x="704" y="-258" as="targetPoint" />
          </mxGeometry>
        </mxCell>
        <mxCell id="g8SVWHZAsRiCq_bppXQF-289" value="" style="html=1;verticalAlign=bottom;endArrow=open;dashed=1;endSize=8;curved=0;rounded=0;entryX=-0.028;entryY=0.498;entryDx=0;entryDy=0;entryPerimeter=0;exitX=0.5;exitY=1;exitDx=0;exitDy=0;" edge="1" parent="1" source="g8SVWHZAsRiCq_bppXQF-282" target="g8SVWHZAsRiCq_bppXQF-279">
          <mxGeometry x="0.2872" y="9" relative="1" as="geometry">
            <mxPoint x="500" y="-130" as="sourcePoint" />
            <mxPoint x="629.48" y="-208" as="targetPoint" />
            <Array as="points" />
            <mxPoint as="offset" />
          </mxGeometry>
        </mxCell>
        <mxCell id="g8SVWHZAsRiCq_bppXQF-290" value="include" style="edgeLabel;html=1;align=center;verticalAlign=middle;resizable=0;points=[];" vertex="1" connectable="0" parent="g8SVWHZAsRiCq_bppXQF-289">
          <mxGeometry x="0.1385" y="1" relative="1" as="geometry">
            <mxPoint x="-1" as="offset" />
          </mxGeometry>
        </mxCell>
        <mxCell id="g8SVWHZAsRiCq_bppXQF-291" value="" style="html=1;verticalAlign=bottom;endArrow=open;dashed=1;endSize=8;curved=0;rounded=0;entryX=0.052;entryY=0.309;entryDx=0;entryDy=0;entryPerimeter=0;exitX=0.5;exitY=1;exitDx=0;exitDy=0;" edge="1" parent="1" source="g8SVWHZAsRiCq_bppXQF-282" target="g8SVWHZAsRiCq_bppXQF-283">
          <mxGeometry relative="1" as="geometry">
            <mxPoint x="634" y="-148" as="sourcePoint" />
            <mxPoint x="504" y="-218" as="targetPoint" />
          </mxGeometry>
        </mxCell>
        <mxCell id="g8SVWHZAsRiCq_bppXQF-292" value="include" style="edgeLabel;html=1;align=center;verticalAlign=middle;resizable=0;points=[];" vertex="1" connectable="0" parent="g8SVWHZAsRiCq_bppXQF-291">
          <mxGeometry x="-0.3262" relative="1" as="geometry">
            <mxPoint as="offset" />
          </mxGeometry>
        </mxCell>
        <mxCell id="g8SVWHZAsRiCq_bppXQF-293" value="include" style="html=1;verticalAlign=bottom;endArrow=open;dashed=1;endSize=8;curved=0;rounded=0;exitX=0.5;exitY=1;exitDx=0;exitDy=0;entryX=0.5;entryY=0;entryDx=0;entryDy=0;" edge="1" parent="1" source="g8SVWHZAsRiCq_bppXQF-282" target="g8SVWHZAsRiCq_bppXQF-284">
          <mxGeometry relative="1" as="geometry">
            <mxPoint x="634" y="-58" as="sourcePoint" />
            <mxPoint x="554" y="-58" as="targetPoint" />
          </mxGeometry>
        </mxCell>
        <mxCell id="g8SVWHZAsRiCq_bppXQF-294" value="include" style="endArrow=open;endSize=12;dashed=1;html=1;rounded=0;exitX=0;exitY=0;exitDx=0;exitDy=0;" edge="1" parent="1" source="g8SVWHZAsRiCq_bppXQF-278" target="g8SVWHZAsRiCq_bppXQF-280">
          <mxGeometry x="0.0065" width="160" relative="1" as="geometry">
            <mxPoint x="644" y="27" as="sourcePoint" />
            <mxPoint x="728" y="96" as="targetPoint" />
            <mxPoint as="offset" />
          </mxGeometry>
        </mxCell>
        <mxCell id="g8SVWHZAsRiCq_bppXQF-295" value="include" style="endArrow=open;endSize=12;dashed=1;html=1;rounded=0;entryX=0;entryY=1;entryDx=0;entryDy=0;exitX=1;exitY=0.5;exitDx=0;exitDy=0;" edge="1" parent="1" source="g8SVWHZAsRiCq_bppXQF-271" target="g8SVWHZAsRiCq_bppXQF-273">
          <mxGeometry width="160" relative="1" as="geometry">
            <mxPoint x="672" y="-309" as="sourcePoint" />
            <mxPoint x="762" y="-256" as="targetPoint" />
          </mxGeometry>
        </mxCell>
        <mxCell id="g8SVWHZAsRiCq_bppXQF-296" value="include" style="endArrow=open;endSize=12;dashed=1;html=1;rounded=0;exitX=1;exitY=0.5;exitDx=0;exitDy=0;entryX=0.05;entryY=0.7;entryDx=0;entryDy=0;entryPerimeter=0;" edge="1" parent="1" source="g8SVWHZAsRiCq_bppXQF-271" target="g8SVWHZAsRiCq_bppXQF-275">
          <mxGeometry width="160" relative="1" as="geometry">
            <mxPoint x="682" y="-299" as="sourcePoint" />
            <mxPoint x="772" y="-246" as="targetPoint" />
          </mxGeometry>
        </mxCell>
        <mxCell id="g8SVWHZAsRiCq_bppXQF-297" value="include" style="endArrow=open;endSize=12;dashed=1;html=1;rounded=0;exitX=1;exitY=0.5;exitDx=0;exitDy=0;entryX=0;entryY=0.5;entryDx=0;entryDy=0;" edge="1" parent="1" source="g8SVWHZAsRiCq_bppXQF-271" target="g8SVWHZAsRiCq_bppXQF-276">
          <mxGeometry width="160" relative="1" as="geometry">
            <mxPoint x="692" y="-289" as="sourcePoint" />
            <mxPoint x="782" y="-236" as="targetPoint" />
          </mxGeometry>
        </mxCell>
        <mxCell id="g8SVWHZAsRiCq_bppXQF-298" value="include" style="endArrow=open;endSize=12;dashed=1;html=1;rounded=0;entryX=0;entryY=0.5;entryDx=0;entryDy=0;exitX=1;exitY=0.5;exitDx=0;exitDy=0;" edge="1" parent="1" source="g8SVWHZAsRiCq_bppXQF-271" target="g8SVWHZAsRiCq_bppXQF-274">
          <mxGeometry width="160" relative="1" as="geometry">
            <mxPoint x="572" y="-294" as="sourcePoint" />
            <mxPoint x="792" y="-226" as="targetPoint" />
          </mxGeometry>
        </mxCell>
        <mxCell id="g8SVWHZAsRiCq_bppXQF-299" value="include" style="endArrow=open;endSize=12;dashed=1;html=1;rounded=0;entryX=0.5;entryY=1;entryDx=0;entryDy=0;exitX=1;exitY=0.5;exitDx=0;exitDy=0;" edge="1" parent="1" source="g8SVWHZAsRiCq_bppXQF-271" target="g8SVWHZAsRiCq_bppXQF-272">
          <mxGeometry width="160" relative="1" as="geometry">
            <mxPoint x="712" y="-269" as="sourcePoint" />
            <mxPoint x="802" y="-216" as="targetPoint" />
          </mxGeometry>
        </mxCell>
        <mxCell id="g8SVWHZAsRiCq_bppXQF-300" value="include" style="endArrow=open;endSize=12;dashed=1;html=1;rounded=0;exitX=1;exitY=0.5;exitDx=0;exitDy=0;entryX=0;entryY=0.5;entryDx=0;entryDy=0;" edge="1" parent="1" source="g8SVWHZAsRiCq_bppXQF-276" target="g8SVWHZAsRiCq_bppXQF-301">
          <mxGeometry x="-0.1153" y="-1" width="160" relative="1" as="geometry">
            <mxPoint x="484" y="-288" as="sourcePoint" />
            <mxPoint x="964" y="-348" as="targetPoint" />
            <mxPoint as="offset" />
          </mxGeometry>
        </mxCell>
        <mxCell id="g8SVWHZAsRiCq_bppXQF-301" value="Tìm kiếm theo mã" style="ellipse;whiteSpace=wrap;html=1;" vertex="1" parent="1">
          <mxGeometry x="830" y="-348" width="120" height="80" as="geometry" />
        </mxCell>
        <mxCell id="g8SVWHZAsRiCq_bppXQF-302" value="Tìm kiếm theo tên" style="ellipse;whiteSpace=wrap;html=1;" vertex="1" parent="1">
          <mxGeometry x="830" y="-250" width="120" height="80" as="geometry" />
        </mxCell>
        <mxCell id="g8SVWHZAsRiCq_bppXQF-303" value="include" style="endArrow=open;endSize=12;dashed=1;html=1;rounded=0;exitX=1;exitY=0.5;exitDx=0;exitDy=0;entryX=0;entryY=0.5;entryDx=0;entryDy=0;" edge="1" parent="1" source="g8SVWHZAsRiCq_bppXQF-276" target="g8SVWHZAsRiCq_bppXQF-302">
          <mxGeometry x="-0.1153" y="-1" width="160" relative="1" as="geometry">
            <mxPoint x="913" y="-320" as="sourcePoint" />
            <mxPoint x="983" y="-340" as="targetPoint" />
            <mxPoint as="offset" />
          </mxGeometry>
        </mxCell>
        <mxCell id="g8SVWHZAsRiCq_bppXQF-304" value="include" style="endArrow=open;endSize=12;dashed=1;html=1;rounded=0;entryX=1;entryY=0.5;entryDx=0;entryDy=0;" edge="1" parent="1" source="g8SVWHZAsRiCq_bppXQF-305" target="g8SVWHZAsRiCq_bppXQF-308">
          <mxGeometry x="-0.1153" y="-1" width="160" relative="1" as="geometry">
            <mxPoint x="915" y="-289" as="sourcePoint" />
            <mxPoint x="324" y="-48" as="targetPoint" />
            <mxPoint as="offset" />
          </mxGeometry>
        </mxCell>
        <mxCell id="g8SVWHZAsRiCq_bppXQF-305" value="Quên mật khẩu" style="ellipse;whiteSpace=wrap;html=1;" vertex="1" parent="1">
          <mxGeometry x="264" y="-58" width="120" height="80" as="geometry" />
        </mxCell>
        <mxCell id="g8SVWHZAsRiCq_bppXQF-306" value="include" style="endArrow=open;endSize=12;dashed=1;html=1;rounded=0;entryX=0.038;entryY=0.656;entryDx=0;entryDy=0;entryPerimeter=0;" edge="1" parent="1" source="g8SVWHZAsRiCq_bppXQF-275" target="g8SVWHZAsRiCq_bppXQF-309">
          <mxGeometry x="-0.1153" y="-1" width="160" relative="1" as="geometry">
            <mxPoint x="925" y="-279" as="sourcePoint" />
            <mxPoint x="954" y="-438" as="targetPoint" />
            <mxPoint as="offset" />
          </mxGeometry>
        </mxCell>
        <mxCell id="g8SVWHZAsRiCq_bppXQF-307" value="extend" style="endArrow=open;endSize=12;dashed=1;html=1;rounded=0;entryX=0.815;entryY=0.952;entryDx=0;entryDy=0;entryPerimeter=0;exitX=0.559;exitY=-0.013;exitDx=0;exitDy=0;exitPerimeter=0;" edge="1" parent="1">
          <mxGeometry x="-0.1153" y="-1" width="160" relative="1" as="geometry">
            <mxPoint x="328.9999999999999" y="-55.819999999999936" as="sourcePoint" />
            <mxPoint x="327.53999999999974" y="-130.17000000000013" as="targetPoint" />
            <mxPoint as="offset" />
          </mxGeometry>
        </mxCell>
        <mxCell id="g8SVWHZAsRiCq_bppXQF-308" value="Gửi yêu cầu đặt lại mật khẩu" style="ellipse;whiteSpace=wrap;html=1;" vertex="1" parent="1">
          <mxGeometry x="60" y="-58" width="120" height="80" as="geometry" />
        </mxCell>
        <mxCell id="g8SVWHZAsRiCq_bppXQF-309" value="Xác nhận xóa người dùng" style="ellipse;whiteSpace=wrap;html=1;" vertex="1" parent="1">
          <mxGeometry x="830" y="-440" width="120" height="80" as="geometry" />
        </mxCell>
        <mxCell id="g8SVWHZAsRiCq_bppXQF-310" value="Thêm tài khoản" style="ellipse;whiteSpace=wrap;html=1;" vertex="1" parent="1">
          <mxGeometry x="96" y="-378" width="120" height="70" as="geometry" />
        </mxCell>
        <mxCell id="g8SVWHZAsRiCq_bppXQF-311" value="include" style="endArrow=open;endSize=12;dashed=1;html=1;rounded=0;entryX=0.995;entryY=0.593;entryDx=0;entryDy=0;exitX=0.042;exitY=0.5;exitDx=0;exitDy=0;exitPerimeter=0;entryPerimeter=0;" edge="1" parent="1" source="g8SVWHZAsRiCq_bppXQF-278" target="g8SVWHZAsRiCq_bppXQF-281">
          <mxGeometry x="0.0065" width="160" relative="1" as="geometry">
            <mxPoint x="367" y="-458" as="sourcePoint" />
            <mxPoint x="256" y="-488" as="targetPoint" />
            <mxPoint as="offset" />
          </mxGeometry>
        </mxCell>
        <mxCell id="g8SVWHZAsRiCq_bppXQF-312" value="include" style="endArrow=open;endSize=12;dashed=1;html=1;rounded=0;exitX=0.112;exitY=0.873;exitDx=0;exitDy=0;entryX=0.936;entryY=0.293;entryDx=0;entryDy=0;entryPerimeter=0;exitPerimeter=0;" edge="1" parent="1" source="g8SVWHZAsRiCq_bppXQF-278" target="g8SVWHZAsRiCq_bppXQF-310">
          <mxGeometry x="0.0065" width="160" relative="1" as="geometry">
            <mxPoint x="317" y="-426" as="sourcePoint" />
            <mxPoint x="276" y="-468" as="targetPoint" />
            <mxPoint as="offset" />
          </mxGeometry>
        </mxCell>
        <mxCell id="g8SVWHZAsRiCq_bppXQF-313" value="Tạo nhóm quyền" style="ellipse;whiteSpace=wrap;html=1;" vertex="1" parent="1">
          <mxGeometry x="104" y="-640" width="104" height="60" as="geometry" />
        </mxCell>
        <mxCell id="g8SVWHZAsRiCq_bppXQF-314" value="include" style="endArrow=open;endSize=12;dashed=1;html=1;rounded=0;exitX=0.367;exitY=0.013;exitDx=0;exitDy=0;exitPerimeter=0;" edge="1" parent="1" source="g8SVWHZAsRiCq_bppXQF-278" target="g8SVWHZAsRiCq_bppXQF-313">
          <mxGeometry x="0.0065" width="160" relative="1" as="geometry">
            <mxPoint x="277" y="-538" as="sourcePoint" />
            <mxPoint x="718" y="14" as="targetPoint" />
            <mxPoint as="offset" />
          </mxGeometry>
        </mxCell>
        <mxCell id="g8SVWHZAsRiCq_bppXQF-315" value="Gán nhóm quyền" style="ellipse;whiteSpace=wrap;html=1;" vertex="1" parent="1">
          <mxGeometry x="225" y="-639.5" width="104" height="60" as="geometry" />
        </mxCell>
        <mxCell id="g8SVWHZAsRiCq_bppXQF-316" value="include" style="endArrow=open;endSize=12;dashed=1;html=1;rounded=0;exitX=0.5;exitY=0;exitDx=0;exitDy=0;" edge="1" parent="1" source="g8SVWHZAsRiCq_bppXQF-278" target="g8SVWHZAsRiCq_bppXQF-315">
          <mxGeometry x="0.0065" width="160" relative="1" as="geometry">
            <mxPoint x="434" y="-466.5" as="sourcePoint" />
            <mxPoint x="839" y="14.5" as="targetPoint" />
            <mxPoint as="offset" />
          </mxGeometry>
        </mxCell>
        <mxCell id="g8SVWHZAsRiCq_bppXQF-317" value="Xóa nhóm quyền" style="ellipse;whiteSpace=wrap;html=1;" vertex="1" parent="1">
          <mxGeometry x="354" y="-639.5" width="104" height="60" as="geometry" />
        </mxCell>
        <mxCell id="g8SVWHZAsRiCq_bppXQF-318" value="include" style="endArrow=open;endSize=12;dashed=1;html=1;rounded=0;" edge="1" parent="1" source="g8SVWHZAsRiCq_bppXQF-278" target="g8SVWHZAsRiCq_bppXQF-317">
          <mxGeometry x="0.0065" width="160" relative="1" as="geometry">
            <mxPoint x="434" y="-468.5" as="sourcePoint" />
            <mxPoint x="944" y="14" as="targetPoint" />
            <mxPoint as="offset" />
          </mxGeometry>
        </mxCell>
      </root>
    </mxGraphModel>
  </diagram>
</mxfile>
